<svg version="1.1" viewBox="0.0 0.0 960.0 540.0" fill="none" stroke="none" stroke-linecap="square" stroke-miterlimit="10" xmlns:xlink="http://www.w3.org/1999/xlink" xmlns="http://www.w3.org/2000/svg"><clipPath id="g3a659f88e4_0_0.0"><path d="m0 0l960.0 0l0 540.0l-960.0 0l0 -540.0z" clip-rule="nonzero"/></clipPath><g clip-path="url(#g3a659f88e4_0_0.0)"><path fill="#ffffff" d="m0 0l960.0 0l0 540.0l-960.0 0z" fill-rule="evenodd"/><path fill="#4db6ac" d="m-0.007874016 529.7323l960.0 0l0 10.2677l-960.0 0z" fill-rule="evenodd"/><path fill="#000000" fill-opacity="0.0" d="m32.72441 46.721786l894.55115 0l0 74.267715l-894.55115 0z" fill-rule="evenodd"/><path fill="#ef6c00" d="m57.47441 94.223656l-7.921875 0l-1.96875 7.578125l-6.0 0l9.734375 -33.84375l4.765625 0l9.78125 33.84375l-6.328125 0l-2.0625 -7.578125zm-6.625 -5.0l5.5625 0l-1.921875 -7.828125l-0.765625 -5.28125l-0.1875 0l-0.828125 5.328125l-1.859375 7.78125zm34.219925 4.125q0 2.015625 0.046875 4.03125q0.046875 2.015625 0.390625 4.46875l-4.03125 0l-0.78125 -2.78125l-0.1875 0q-1.625 3.359375 -5.703125 3.359375q-3.65625 0 -5.75 -2.875q-2.078125 -2.890625 -2.078125 -9.359375q0 -6.34375 2.25 -9.625q2.265625 -3.296875 6.71875 -3.296875q1.15625 0 1.921875 0.15625q0.765625 0.140625 1.484375 0.46875l0 -9.6875l5.71875 0l0 25.140625zm-8.921875 3.84375q1.28125 0 2.046875 -0.640625q0.78125 -0.65625 1.15625 -1.90625l0 -11.328125q-0.46875 -0.421875 -1.078125 -0.609375q-0.59375 -0.203125 -1.5625 -0.203125q-1.90625 0 -2.875 1.734375q-0.953125 1.71875 -0.953125 6.140625q0 3.3125 0.78125 5.0625q0.796875 1.75 2.484375 1.75zm30.281921 -3.84375q0 2.015625 0.046875 4.03125q0.046875 2.015625 0.390625 4.46875l-4.03125 0l-0.78125 -2.78125l-0.1875 0q-1.625 3.359375 -5.703125 3.359375q-3.65625 0 -5.75 -2.875q-2.078125 -2.890625 -2.078125 -9.359375q0 -6.34375 2.25 -9.625q2.265625 -3.296875 6.71875 -3.296875q1.15625 0 1.921875 0.15625q0.765625 0.140625 1.484375 0.46875l0 -9.6875l5.71875 0l0 25.140625zm-8.921875 3.84375q1.28125 0 2.046875 -0.640625q0.78125 -0.65625 1.15625 -1.90625l0 -11.328125q-0.46875 -0.421875 -1.078125 -0.609375q-0.59375 -0.203125 -1.5625 -0.203125q-1.90625 0 -2.875 1.734375q-0.953125 1.71875 -0.953125 6.140625q0 3.3125 0.78125 5.0625q0.796875 1.75 2.484375 1.75zm21.012573 -19.390625l2.640625 0l0 -4.515625l5.71875 -1.765625l0 6.28125l4.65625 0l0 5.09375l-4.65625 0l0 10.453125q0 2.0625 0.40625 2.9375q0.40625 0.859375 1.46875 0.859375q0.71875 0 1.28125 -0.140625q0.578125 -0.140625 1.25 -0.4375l0.734375 4.5625q-1.0625 0.53125 -2.453125 0.890625q-1.390625 0.359375 -2.9375 0.359375q-2.734375 0 -4.109375 -1.578125q-1.359375 -1.59375 -1.359375 -5.34375l0 -12.5625l-2.640625 0l0 -5.09375zm27.749283 24.0l0 -14.5q0 -2.59375 -0.609375 -3.734375q-0.59375 -1.15625 -2.171875 -1.15625q-1.15625 0 -2.125 0.8125q-0.953125 0.8125 -1.28125 2.0625l0 16.515625l-5.71875 0l0 -33.59375l5.71875 0l0 11.75l0.140625 0q0.953125 -1.25 2.3125 -2.015625q1.375 -0.765625 3.453125 -0.765625q1.484375 0 2.578125 0.4375q1.109375 0.421875 1.875 1.4375q0.765625 1.0 1.15625 2.703125q0.390625 1.703125 0.390625 4.296875l0 15.75l-5.71875 0zm25.864548 -1.78125q-1.1875 1.0625 -3.265625 1.734375q-2.0625 0.671875 -4.3125 0.671875q-2.5 0 -4.296875 -0.859375q-1.796875 -0.875 -2.953125 -2.5q-1.15625 -1.640625 -1.703125 -3.96875q-0.546875 -2.328125 -0.546875 -5.296875q0 -6.484375 2.5625 -9.578125q2.578125 -3.09375 7.125 -3.09375q1.546875 0 2.984375 0.453125q1.4375 0.453125 2.5625 1.546875q1.125 1.078125 1.8125 2.875q0.703125 1.796875 0.703125 4.53125q0 1.0625 -0.125 2.265625q-0.109375 1.1875 -0.34375 2.578125l-11.671875 0q0.09375 2.984375 1.25 4.578125q1.15625 1.578125 3.703125 1.578125q1.53125 0 2.796875 -0.484375q1.28125 -0.484375 1.953125 -1.015625l1.765625 3.984375zm-7.484375 -18.0q-1.828125 0 -2.734375 1.46875q-0.90625 1.46875 -1.046875 4.109375l6.609375 0q0.15625 -2.734375 -0.5625 -4.15625q-0.71875 -1.421875 -2.265625 -1.421875zm29.712189 13.390625q0 -1.0 -0.65625 -1.6875q-0.640625 -0.703125 -1.65625 -1.296875q-1.0 -0.609375 -2.125 -1.234375q-1.125 -0.625 -2.140625 -1.53125q-1.0 -0.921875 -1.65625 -2.203125q-0.640625 -1.296875 -0.640625 -3.265625q0 -3.359375 1.8125 -5.1875q1.828125 -1.828125 5.390625 -1.828125q2.109375 0 3.96875 0.453125q1.875 0.453125 2.984375 1.125l-1.34375 4.421875q-0.90625 -0.390625 -2.203125 -0.75q-1.296875 -0.359375 -2.546875 -0.359375q-2.359375 0 -2.359375 1.96875q0 0.921875 0.640625 1.53125q0.65625 0.59375 1.65625 1.171875q1.015625 0.5625 2.140625 1.1875q1.140625 0.625 2.140625 1.5625q1.015625 0.9375 1.65625 2.28125q0.65625 1.34375 0.65625 3.3125q0 3.3125 -2.015625 5.328125q-2.015625 2.015625 -6.0 2.015625q-1.96875 0 -3.875 -0.484375q-1.890625 -0.484375 -3.046875 -1.25l1.59375 -4.609375q1.0 0.578125 2.3125 1.015625q1.328125 0.4375 2.765625 0.4375q1.109375 0 1.828125 -0.5q0.71875 -0.515625 0.71875 -1.625zm14.550034 -1.390625q0 1.6875 0.328125 2.40625q0.34375 0.71875 1.109375 0.71875q0.4375 0 0.890625 -0.09375q0.453125 -0.09375 1.03125 -0.34375l0.53125 4.609375q-0.578125 0.390625 -1.96875 0.71875q-1.390625 0.34375 -2.84375 0.34375q-2.390625 0 -3.59375 -1.203125q-1.203125 -1.203125 -1.203125 -4.078125l0 -28.890625l5.71875 0l0 25.8125zm6.3358917 -16.21875l5.703125 0l0 24.0l-5.703125 0l0 -24.0zm-0.671875 -6.765625q0 -1.4375 0.90625 -2.375q0.921875 -0.9375 2.609375 -0.9375q1.671875 0 2.671875 0.921875q1.015625 0.90625 1.015625 2.390625q0 1.484375 -1.015625 2.359375q-1.0 0.859375 -2.671875 0.859375q-1.6875 0 -2.609375 -0.890625q-0.90625 -0.890625 -0.90625 -2.328125zm28.221893 22.3125q0 2.015625 0.046875 4.03125q0.046875 2.015625 0.390625 4.46875l-4.03125 0l-0.78125 -2.78125l-0.1875 0q-1.625 3.359375 -5.703125 3.359375q-3.65625 0 -5.75 -2.875q-2.078125 -2.890625 -2.078125 -9.359375q0 -6.34375 2.25 -9.625q2.265625 -3.296875 6.71875 -3.296875q1.15625 0 1.921875 0.15625q0.765625 0.140625 1.484375 0.46875l0 -9.6875l5.71875 0l0 25.140625zm-8.921875 3.84375q1.28125 0 2.046875 -0.640625q0.78125 -0.65625 1.15625 -1.90625l0 -11.328125q-0.46875 -0.421875 -1.078125 -0.609375q-0.59375 -0.203125 -1.5625 -0.203125q-1.90625 0 -2.875 1.734375q-0.953125 1.71875 -0.953125 6.140625q0 3.3125 0.78125 5.0625q0.796875 1.75 2.484375 1.75zm29.266296 2.828125q-1.1875 1.0625 -3.265625 1.734375q-2.0625 0.671875 -4.3125 0.671875q-2.5 0 -4.296875 -0.859375q-1.796875 -0.875 -2.953125 -2.5q-1.15625 -1.640625 -1.703125 -3.96875q-0.546875 -2.328125 -0.546875 -5.296875q0 -6.484375 2.5625 -9.578125q2.578125 -3.09375 7.125 -3.09375q1.546875 0 2.984375 0.453125q1.4375 0.453125 2.5625 1.546875q1.125 1.078125 1.8125 2.875q0.703125 1.796875 0.703125 4.53125q0 1.0625 -0.125 2.265625q-0.109375 1.1875 -0.34375 2.578125l-11.671875 0q0.09375 2.984375 1.25 4.578125q1.15625 1.578125 3.703125 1.578125q1.53125 0 2.796875 -0.484375q1.28125 -0.484375 1.953125 -1.015625l1.765625 3.984375zm-7.484375 -18.0q-1.828125 0 -2.734375 1.46875q-0.90625 1.46875 -1.046875 4.109375l6.609375 0q0.15625 -2.734375 -0.5625 -4.15625q-0.71875 -1.421875 -2.265625 -1.421875zm20.790314 7.78125q0 -6.390625 2.484375 -9.5q2.5 -3.125 6.96875 -3.125q4.796875 0 7.140625 3.171875q2.359375 3.171875 2.359375 9.453125q0 6.4375 -2.5 9.53125q-2.484375 3.09375 -7.0 3.09375q-9.453125 0 -9.453125 -12.625zm5.90625 0q0 3.59375 0.8125 5.5625q0.8125 1.96875 2.734375 1.96875q1.828125 0 2.703125 -1.703125q0.890625 -1.703125 0.890625 -5.828125q0 -3.703125 -0.8125 -5.609375q-0.8125 -1.921875 -2.78125 -1.921875q-1.6875 0 -2.625 1.703125q-0.921875 1.703125 -0.921875 5.828125zm14.641296 -12.0l2.578125 0l0 -1.34375q0 -4.5625 1.703125 -6.59375q1.71875 -2.046875 4.875 -2.046875q3.171875 0 5.28125 0.859375l-1.046875 4.859375q-0.875 -0.34375 -1.546875 -0.40625q-0.671875 -0.078125 -1.390625 -0.078125q-1.390625 0 -1.78125 1.078125q-0.375 1.078125 -0.375 3.671875l4.078125 0l0 5.09375l-4.078125 0l0 18.90625l-5.71875 0l0 -18.90625l-2.578125 0l0 -5.09375zm32.01541 13.484375l0.625 3.75l0.234375 0l0.4375 -3.796875l2.78125 -13.4375l5.859375 0l-6.0 21.640625q-0.828125 2.84375 -1.546875 5.09375q-0.71875 2.25 -1.53125 3.828125q-0.8125 1.59375 -1.84375 2.4375076q-1.03125 0.84375 -2.484375 0.84375q-1.0 0 -1.9375 -0.171875q-0.9375 -0.171875 -1.609375 -0.546875l0.96875 -4.9062576q0.609375 0.25 1.25 0.21875q0.65625 -0.015625 1.203125 -0.484375q0.5625 -0.453125 0.984375 -1.421875q0.4375 -0.953125 0.734375 -2.53125l-8.359375 -24.0l6.875 0l3.359375 13.484375zm10.653168 -1.484375q0 -6.390625 2.484375 -9.5q2.5 -3.125 6.96875 -3.125q4.796875 0 7.140625 3.171875q2.359375 3.171875 2.359375 9.453125q0 6.4375 -2.5 9.53125q-2.484375 3.09375 -7.0 3.09375q-9.453125 0 -9.453125 -12.625zm5.90625 0q0 3.59375 0.8125 5.5625q0.8125 1.96875 2.734375 1.96875q1.828125 0 2.703125 -1.703125q0.890625 -1.703125 0.890625 -5.828125q0 -3.703125 -0.8125 -5.609375q-0.8125 -1.921875 -2.78125 -1.921875q-1.6875 0 -2.625 1.703125q-0.921875 1.703125 -0.921875 5.828125zm21.828796 -12.0l0 14.359375q0 2.828125 0.53125 3.9375q0.53125 1.09375 1.921875 1.09375q1.34375 0 2.25 -0.984375q0.921875 -0.984375 1.296875 -2.375l0 -16.03125l5.71875 0l0 16.703125q0 1.96875 0.140625 3.875q0.140625 1.890625 0.53125 3.421875l-4.328125 0l-1.0 -3.265625l-0.140625 0q-0.921875 1.6875 -2.484375 2.796875q-1.546875 1.09375 -3.859375 1.09375q-1.484375 0 -2.640625 -0.40625q-1.140625 -0.40625 -1.96875 -1.40625q-0.8125 -1.015625 -1.25 -2.765625q-0.421875 -1.765625 -0.421875 -4.453125l0 -15.59375l5.703125 0zm27.22055 5.65625q-1.15625 -0.421875 -2.109375 -0.421875q-1.296875 0 -2.234375 0.71875q-0.9375 0.71875 -1.265625 2.015625l0 16.03125l-5.71875 0l0 -24.0l4.375 0l0.671875 2.875l0.1875 0q0.625 -1.578125 1.796875 -2.46875q1.171875 -0.890625 2.71875 -0.890625q1.140625 0 2.25 0.484375l-0.671875 5.65625zm10.904053 -5.65625l2.578125 0l0 -1.34375q0 -4.5625 1.703125 -6.59375q1.71875 -2.046875 4.875 -2.046875q3.171875 0 5.28125 0.859375l-1.046875 4.859375q-0.875 -0.34375 -1.546875 -0.40625q-0.671875 -0.078125 -1.390625 -0.078125q-1.390625 0 -1.78125 1.078125q-0.375 1.078125 -0.375 3.671875l4.078125 0l0 5.09375l-4.078125 0l0 18.90625l-5.71875 0l0 -18.90625l-2.578125 0l0 -5.09375zm20.300385 16.21875q0 1.6875 0.328125 2.40625q0.34375 0.71875 1.109375 0.71875q0.4375 0 0.890625 -0.09375q0.453125 -0.09375 1.03125 -0.34375l0.53125 4.609375q-0.578125 0.390625 -1.96875 0.71875q-1.390625 0.34375 -2.84375 0.34375q-2.390625 0 -3.59375 -1.203125q-1.203125 -1.203125 -1.203125 -4.078125l0 -28.890625l5.71875 0l0 25.8125zm5.8983765 -14.78125q1.4375 -0.859375 3.59375 -1.390625q2.171875 -0.53125 4.90625 -0.53125q4.078125 0 5.6875 2.125q1.609375 2.109375 1.609375 5.984375q0 2.265625 -0.125 4.453125q-0.125 2.171875 -0.171875 4.265625q-0.046875 2.09375 0.078125 4.03125q0.125 1.9375 0.65625 3.671875l-4.65625 0l-0.921875 -2.921875l-0.1875 0q-0.765625 1.390625 -2.15625 2.3125q-1.390625 0.90625 -3.515625 0.90625q-2.828125 0 -4.46875 -1.890625q-1.625 -1.90625 -1.625 -5.078125q0 -4.3125 3.0625 -6.140625q3.078125 -1.828125 8.3125 -1.53125q0.25 -2.796875 -0.359375 -4.03125q-0.59375 -1.25 -2.5625 -1.25q-1.4375 0 -2.984375 0.34375q-1.53125 0.328125 -2.734375 0.953125l-1.4375 -4.28125zm6.859375 18.0q1.296875 0 2.109375 -0.640625q0.828125 -0.65625 1.203125 -1.421875l0 -3.984375q-1.09375 -0.140625 -2.109375 -0.046875q-1.0 0.09375 -1.78125 0.4375q-0.765625 0.328125 -1.21875 0.984375q-0.453125 0.640625 -0.453125 1.65625q0 1.484375 0.59375 2.25q0.609375 0.765625 1.65625 0.765625zm20.980286 -1.828125q0 -1.0 -0.65625 -1.6875q-0.640625 -0.703125 -1.65625 -1.296875q-1.0 -0.609375 -2.125 -1.234375q-1.125 -0.625 -2.140625 -1.53125q-1.0 -0.921875 -1.65625 -2.203125q-0.640625 -1.296875 -0.640625 -3.265625q0 -3.359375 1.8125 -5.1875q1.828125 -1.828125 5.390625 -1.828125q2.109375 0 3.96875 0.453125q1.875 0.453125 2.984375 1.125l-1.34375 4.421875q-0.90625 -0.390625 -2.203125 -0.75q-1.296875 -0.359375 -2.546875 -0.359375q-2.359375 0 -2.359375 1.96875q0 0.921875 0.640625 1.53125q0.65625 0.59375 1.65625 1.171875q1.015625 0.5625 2.140625 1.1875q1.140625 0.625 2.140625 1.5625q1.015625 0.9375 1.65625 2.28125q0.65625 1.34375 0.65625 3.3125q0 3.3125 -2.015625 5.328125q-2.015625 2.015625 -6.0 2.015625q-1.96875 0 -3.875 -0.484375q-1.890625 -0.484375 -3.046875 -1.25l1.59375 -4.609375q1.0 0.578125 2.3125 1.015625q1.328125 0.4375 2.765625 0.4375q1.109375 0 1.828125 -0.5q0.71875 -0.515625 0.71875 -1.625zm20.643799 6.390625l0 -14.5q0 -2.59375 -0.609375 -3.734375q-0.59375 -1.15625 -2.171875 -1.15625q-1.15625 0 -2.125 0.8125q-0.953125 0.8125 -1.28125 2.0625l0 16.515625l-5.71875 0l0 -33.59375l5.71875 0l0 11.75l0.140625 0q0.953125 -1.25 2.3125 -2.015625q1.375 -0.765625 3.453125 -0.765625q1.484375 0 2.578125 0.4375q1.109375 0.421875 1.875 1.4375q0.765625 1.0 1.15625 2.703125q0.390625 1.703125 0.390625 4.296875l0 15.75l-5.71875 0zm19.48584 -24.0l4.28125 0l0.5625 2.734375l0.15625 0q1.09375 -1.71875 2.453125 -2.515625q1.375 -0.796875 3.390625 -0.796875q3.6562805 0 5.5000305 2.765625q1.84375 2.75 1.84375 9.1875q0 6.4375 -2.3125 9.875q-2.296875 3.421875 -6.6562805 3.421875q-1.15625 0 -1.96875 -0.203125q-0.8125 -0.1875 -1.53125 -0.609375l0 9.734383l-5.71875 0l0 -33.593758zm5.71875 18.625q0.46875 0.484375 1.0625 0.71875q0.609375 0.234375 1.578125 0.234375q1.921875 0 2.921875 -1.890625q1.015625 -1.890625 1.015625 -6.453125q0 -3.40625 -0.78125 -5.0625q-0.765625 -1.65625 -2.53125 -1.65625q-2.40625 0 -3.265625 2.828125l0 11.28125zm27.06546 -12.96875q-1.15625 -0.421875 -2.109375 -0.421875q-1.296875 0 -2.234375 0.71875q-0.9375 0.71875 -1.265625 2.015625l0 16.03125l-5.71875 0l0 -24.0l4.375 0l0.671875 2.875l0.1875 0q0.625 -1.578125 1.796875 -2.46875q1.171875 -0.890625 2.71875 -0.890625q1.140625 0 2.25 0.484375l-0.671875 5.65625zm18.95465 16.5625q-1.1875 1.0625 -3.265625 1.734375q-2.0625 0.671875 -4.3125 0.671875q-2.5 0 -4.296875 -0.859375q-1.796875 -0.875 -2.953125 -2.5q-1.15625 -1.640625 -1.703125 -3.96875q-0.546875 -2.328125 -0.546875 -5.296875q0 -6.484375 2.5625 -9.578125q2.578125 -3.09375 7.125 -3.09375q1.546875 0 2.984375 0.453125q1.4375 0.453125 2.5625 1.546875q1.125 1.078125 1.8125 2.875q0.703125 1.796875 0.703125 4.53125q0 1.0625 -0.125 2.265625q-0.109375 1.1875 -0.34375 2.578125l-11.671875 0q0.09375 2.984375 1.25 4.578125q1.15625 1.578125 3.703125 1.578125q1.53125 0 2.796875 -0.484375q1.28125 -0.484375 1.953125 -1.015625l1.765625 3.984375zm-7.484375 -18.0q-1.828125 0 -2.734375 1.46875q-0.90625 1.46875 -1.046875 4.109375l6.609375 0q0.15625 -2.734375 -0.5625 -4.15625q-0.71875 -1.421875 -2.265625 -1.421875zm19.872192 13.390625q0 -1.0 -0.65625 -1.6875q-0.640625 -0.703125 -1.65625 -1.296875q-1.0 -0.609375 -2.125 -1.234375q-1.125 -0.625 -2.140625 -1.53125q-1.0 -0.921875 -1.65625 -2.203125q-0.640625 -1.296875 -0.640625 -3.265625q0 -3.359375 1.8125 -5.1875q1.828125 -1.828125 5.390625 -1.828125q2.109375 0 3.96875 0.453125q1.875 0.453125 2.984375 1.125l-1.34375 4.421875q-0.90625 -0.390625 -2.203125 -0.75q-1.296875 -0.359375 -2.546875 -0.359375q-2.359375 0 -2.359375 1.96875q0 0.921875 0.640625 1.53125q0.65625 0.59375 1.65625 1.171875q1.015625 0.5625 2.140625 1.1875q1.140625 0.625 2.140625 1.5625q1.015625 0.9375 1.65625 2.28125q0.65625 1.34375 0.65625 3.3125q0 3.3125 -2.015625 5.328125q-2.015625 2.015625 -6.0 2.015625q-1.96875 0 -3.875 -0.484375q-1.890625 -0.484375 -3.046875 -1.25l1.59375 -4.609375q1.0 0.578125 2.3125 1.015625q1.328125 0.4375 2.765625 0.4375q1.109375 0 1.828125 -0.5q0.71875 -0.515625 0.71875 -1.625zm24.956238 4.609375q-1.1875 1.0625 -3.265625 1.734375q-2.0625 0.671875 -4.3125 0.671875q-2.5 0 -4.296875 -0.859375q-1.796875 -0.875 -2.953125 -2.5q-1.15625 -1.640625 -1.703125 -3.96875q-0.546875 -2.328125 -0.546875 -5.296875q0 -6.484375 2.5625 -9.578125q2.578125 -3.09375 7.125 -3.09375q1.546875 0 2.984375 0.453125q1.4375 0.453125 2.5625 1.546875q1.125 1.078125 1.8125 2.875q0.703125 1.796875 0.703125 4.53125q0 1.0625 -0.125 2.265625q-0.109375 1.1875 -0.34375 2.578125l-11.671875 0q0.09375 2.984375 1.25 4.578125q1.15625 1.578125 3.703125 1.578125q1.53125 0 2.796875 -0.484375q1.28125 -0.484375 1.953125 -1.015625l1.765625 3.984375zm-7.484375 -18.0q-1.828125 0 -2.734375 1.46875q-0.90625 1.46875 -1.046875 4.109375l6.609375 0q0.15625 -2.734375 -0.5625 -4.15625q-0.71875 -1.421875 -2.265625 -1.421875zm23.715881 19.78125l0 -14.59375q0 -2.640625 -0.625 -3.6875q-0.625 -1.0625 -2.109375 -1.0625q-1.25 0 -2.171875 0.765625q-0.90625 0.765625 -1.28125 1.921875l0 16.65625l-5.71875 0l0 -24.0l4.5625 0l0.671875 2.78125l0.140625 0q0.859375 -1.390625 2.34375 -2.375q1.5 -0.984375 3.90625 -0.984375q1.4375 0 2.5625 0.4375q1.125 0.421875 1.890625 1.40625q0.765625 0.984375 1.15625 2.640625q0.390625 1.65625 0.390625 4.109375l0 15.984375l-5.71875 0zm7.770813 -24.0l2.640625 0l0 -4.515625l5.71875 -1.765625l0 6.28125l4.65625 0l0 5.09375l-4.65625 0l0 10.453125q0 2.0625 0.40625 2.9375q0.40625 0.859375 1.46875 0.859375q0.71875 0 1.28125 -0.140625q0.578125 -0.140625 1.25 -0.4375l0.734375 4.5625q-1.0625 0.53125 -2.453125 0.890625q-1.390625 0.359375 -2.9375 0.359375q-2.734375 0 -4.109375 -1.578125q-1.359375 -1.59375 -1.359375 -5.34375l0 -12.5625l-2.640625 0l0 -5.09375zm15.889893 1.4375q1.4375 -0.859375 3.59375 -1.390625q2.171875 -0.53125 4.90625 -0.53125q4.078125 0 5.6875 2.125q1.609375 2.109375 1.609375 5.984375q0 2.265625 -0.125 4.453125q-0.125 2.171875 -0.171875 4.265625q-0.046875 2.09375 0.078125 4.03125q0.125 1.9375 0.65625 3.671875l-4.65625 0l-0.921875 -2.921875l-0.1875 0q-0.765625 1.390625 -2.15625 2.3125q-1.390625 0.90625 -3.515625 0.90625q-2.828125 0 -4.46875 -1.890625q-1.625 -1.90625 -1.625 -5.078125q0 -4.3125 3.0625 -6.140625q3.078125 -1.828125 8.3125 -1.53125q0.25 -2.796875 -0.359375 -4.03125q-0.59375 -1.25 -2.5625 -1.25q-1.4375 0 -2.984375 0.34375q-1.53125 0.328125 -2.734375 0.953125l-1.4375 -4.28125zm6.859375 18.0q1.296875 0 2.109375 -0.640625q0.828125 -0.65625 1.203125 -1.421875l0 -3.984375q-1.09375 -0.140625 -2.109375 -0.046875q-1.0 0.09375 -1.78125 0.4375q-0.765625 0.328125 -1.21875 0.984375q-0.453125 0.640625 -0.453125 1.65625q0 1.484375 0.59375 2.25q0.609375 0.765625 1.65625 0.765625zm11.042786 -19.4375l2.640625 0l0 -4.515625l5.71875 -1.765625l0 6.28125l4.65625 0l0 5.09375l-4.65625 0l0 10.453125q0 2.0625 0.40625 2.9375q0.40625 0.859375 1.46875 0.859375q0.71875 0 1.28125 -0.140625q0.578125 -0.140625 1.25 -0.4375l0.734375 4.5625q-1.0625 0.53125 -2.453125 0.890625q-1.390625 0.359375 -2.9375 0.359375q-2.734375 0 -4.109375 -1.578125q-1.359375 -1.59375 -1.359375 -5.34375l0 -12.5625l-2.640625 0l0 -5.09375zm16.327393 0l5.703125 0l0 24.0l-5.703125 0l0 -24.0zm-0.671875 -6.765625q0 -1.4375 0.90625 -2.375q0.921875 -0.9375 2.609375 -0.9375q1.671875 0 2.671875 0.921875q1.015625 0.90625 1.015625 2.390625q0 1.484375 -1.015625 2.359375q-1.0 0.859375 -2.671875 0.859375q-1.6875 0 -2.609375 -0.890625q-0.90625 -0.890625 -0.90625 -2.328125zm10.128174 18.765625q0 -6.390625 2.484375 -9.5q2.5 -3.125 6.96875 -3.125q4.796875 0 7.140625 3.171875q2.359375 3.171875 2.359375 9.453125q0 6.4375 -2.5 9.53125q-2.484375 3.09375 -7.0 3.09375q-9.453125 0 -9.453125 -12.625zm5.90625 0q0 3.59375 0.8125 5.5625q0.8125 1.96875 2.734375 1.96875q1.828125 0 2.703125 -1.703125q0.890625 -1.703125 0.890625 -5.828125q0 -3.703125 -0.8125 -5.609375q-0.8125 -1.921875 -2.78125 -1.921875q-1.6875 0 -2.625 1.703125q-0.921875 1.703125 -0.921875 5.828125zm28.219421 12.0l0 -14.59375q0 -2.640625 -0.625 -3.6875q-0.625 -1.0625 -2.109375 -1.0625q-1.25 0 -2.171875 0.765625q-0.90625 0.765625 -1.28125 1.921875l0 16.65625l-5.71875 0l0 -24.0l4.5625 0l0.671875 2.78125l0.140625 0q0.859375 -1.390625 2.34375 -2.375q1.5 -0.984375 3.90625 -0.984375q1.4375 0 2.5625 0.4375q1.125 0.421875 1.890625 1.40625q0.765625 0.984375 1.15625 2.640625q0.390625 1.65625 0.390625 4.109375l0 15.984375l-5.71875 0zm31.39209 0l0 -14.5q0 -2.59375 -0.609375 -3.734375q-0.59375 -1.15625 -2.171875 -1.15625q-1.15625 0 -2.125 0.8125q-0.953125 0.8125 -1.28125 2.0625l0 16.515625l-5.71875 0l0 -33.59375l5.71875 0l0 11.75l0.140625 0q0.953125 -1.25 2.3125 -2.015625q1.375 -0.765625 3.453125 -0.765625q1.484375 0 2.578125 0.4375q1.109375 0.421875 1.875 1.4375q0.765625 1.0 1.15625 2.703125q0.390625 1.703125 0.390625 4.296875l0 15.75l-5.71875 0zm25.864563 -1.78125q-1.1875 1.0625 -3.265625 1.734375q-2.0625 0.671875 -4.3125 0.671875q-2.5 0 -4.296875 -0.859375q-1.796875 -0.875 -2.953125 -2.5q-1.15625 -1.640625 -1.703125 -3.96875q-0.546875 -2.328125 -0.546875 -5.296875q0 -6.484375 2.5625 -9.578125q2.578125 -3.09375 7.125 -3.09375q1.546875 0 2.984375 0.453125q1.4375 0.453125 2.5625 1.546875q1.125 1.078125 1.8125 2.875q0.703125 1.796875 0.703125 4.53125q0 1.0625 -0.125 2.265625q-0.109375 1.1875 -0.34375 2.578125l-11.671875 0q0.09375 2.984375 1.25 4.578125q1.15625 1.578125 3.703125 1.578125q1.53125 0 2.796875 -0.484375q1.28125 -0.484375 1.953125 -1.015625l1.765625 3.984375zm-7.484375 -18.0q-1.828125 0 -2.734375 1.46875q-0.90625 1.46875 -1.046875 4.109375l6.609375 0q0.15625 -2.734375 -0.5625 -4.15625q-0.71875 -1.421875 -2.265625 -1.421875zm23.137817 1.4375q-1.15625 -0.421875 -2.109375 -0.421875q-1.296875 0 -2.234375 0.71875q-0.9375 0.71875 -1.265625 2.015625l0 16.03125l-5.71875 0l0 -24.0l4.375 0l0.671875 2.875l0.1875 0q0.625 -1.578125 1.796875 -2.46875q1.171875 -0.890625 2.71875 -0.890625q1.140625 0 2.25 0.484375l-0.671875 5.65625zm18.95465 16.5625q-1.1875 1.0625 -3.265625 1.734375q-2.0625 0.671875 -4.3125 0.671875q-2.5 0 -4.296875 -0.859375q-1.796875 -0.875 -2.953125 -2.5q-1.15625 -1.640625 -1.703125 -3.96875q-0.546875 -2.328125 -0.546875 -5.296875q0 -6.484375 2.5625 -9.578125q2.578125 -3.09375 7.125 -3.09375q1.546875 0 2.984375 0.453125q1.4375 0.453125 2.5625 1.546875q1.125 1.078125 1.8125 2.875q0.703125 1.796875 0.703125 4.53125q0 1.0625 -0.125 2.265625q-0.109375 1.1875 -0.34375 2.578125l-11.671875 0q0.09375 2.984375 1.25 4.578125q1.15625 1.578125 3.703125 1.578125q1.53125 0 2.796875 -0.484375q1.28125 -0.484375 1.953125 -1.015625l1.765625 3.984375zm-7.484375 -18.0q-1.828125 0 -2.734375 1.46875q-0.90625 1.46875 -1.046875 4.109375l6.609375 0q0.15625 -2.734375 -0.5625 -4.15625q-0.71875 -1.421875 -2.265625 -1.421875z" fill-rule="nonzero"/><path fill="#000000" fill-opacity="0.0" d="m32.72441 132.94751l894.55115 0l0 346.74014l-894.55115 0z" fill-rule="evenodd"/><path fill="#695d46" d="m51.615036 156.00313l5.828125 0l0 8.34375q-1.359375 0.421875 -2.765625 0.640625q-1.40625 0.234375 -3.265625 0.234375q-3.890625 0 -6.0625 -2.3125q-2.15625 -2.3125 -2.15625 -6.484375q0 -2.671875 1.0625 -4.6875q1.078125 -2.015625 3.09375 -3.0625q2.015625 -1.0625 4.71875 -1.0625q2.75 0 5.109375 1.0l-0.765625 1.765625q-2.328125 -0.984375 -4.46875 -0.984375q-3.125 0 -4.890625 1.859375q-1.75 1.859375 -1.75 5.171875q0 3.46875 1.6875 5.265625q1.703125 1.78125 4.984375 1.78125q1.78125 0 3.46875 -0.40625l0 -5.28125l-3.828125 0l0 -1.78125zm20.738281 2.546875q0 3.140625 -1.59375 4.90625q-1.578125 1.765625 -4.359375 1.765625q-1.734375 0 -3.078125 -0.8125q-1.328125 -0.8125 -2.0625 -2.3125q-0.71875 -1.515625 -0.71875 -3.546875q0 -3.140625 1.5625 -4.890625q1.578125 -1.75 4.375 -1.75q2.6875 0 4.28125 1.796875q1.59375 1.78125 1.59375 4.84375zm-9.796875 0q0 2.46875 0.984375 3.765625q0.984375 1.28125 2.90625 1.28125q1.90625 0 2.890625 -1.28125q1.0 -1.296875 1.0 -3.765625q0 -2.453125 -1.0 -3.71875q-0.984375 -1.265625 -2.921875 -1.265625q-1.90625 0 -2.890625 1.25q-0.96875 1.25 -0.96875 3.734375zm23.589844 5.0625q0.515625 0 0.984375 -0.078125q0.484375 -0.078125 0.765625 -0.15625l0 1.484375q-0.3125 0.15625 -0.9375 0.25q-0.609375 0.109375 -1.09375 0.109375q-3.734375 0 -3.734375 -3.921875l0 -7.640625l-1.84375 0l0 -0.9375l1.84375 -0.8125l0.828125 -2.75l1.125 0l0 2.984375l3.71875 0l0 1.515625l-3.71875 0l0 7.546875q0 1.171875 0.546875 1.796875q0.546875 0.609375 1.515625 0.609375zm15.410156 -5.0625q0 3.140625 -1.59375 4.90625q-1.578125 1.765625 -4.359375 1.765625q-1.734375 0 -3.078125 -0.8125q-1.328125 -0.8125 -2.0625 -2.3125q-0.71875 -1.515625 -0.71875 -3.546875q0 -3.140625 1.5625 -4.890625q1.578125 -1.75 4.375 -1.75q2.6875 0 4.28125 1.796875q1.59375 1.78125 1.59375 4.84375zm-9.796875 0q0 2.46875 0.984375 3.765625q0.984375 1.28125 2.90625 1.28125q1.90625 0 2.890625 -1.28125q1.0 -1.296875 1.0 -3.765625q0 -2.453125 -1.0 -3.71875q-0.984375 -1.265625 -2.921875 -1.265625q-1.90625 0 -2.890625 1.25q-0.96875 1.25 -0.96875 3.734375zm17.402344 -6.40625l2.078125 0l2.8125 7.328125q0.921875 2.5 1.15625 3.609375l0.09375 0q0.140625 -0.59375 0.625 -2.03125q0.5 -1.453125 3.1875 -8.90625l2.09375 0l-5.53125 14.625q-0.8125 2.171875 -1.90625 3.078125q-1.09375 0.90625 -2.6875 0.90625q-0.890625 0 -1.765625 -0.203125l0 -1.546875q0.640625 0.140625 1.4375 0.140625q2.015625 0 2.859375 -2.25l0.71875 -1.828125l-5.171875 -12.921875zm25.21875 6.40625q0 3.140625 -1.59375 4.90625q-1.578125 1.765625 -4.359375 1.765625q-1.734375 0 -3.078125 -0.8125q-1.328125 -0.8125 -2.0625 -2.3125q-0.71875 -1.515625 -0.71875 -3.546875q0 -3.140625 1.5625 -4.890625q1.578125 -1.75 4.375 -1.75q2.6875 0 4.28125 1.796875q1.59375 1.78125 1.59375 4.84375zm-9.796875 0q0 2.46875 0.984375 3.765625q0.984375 1.28125 2.90625 1.28125q1.90625 0 2.890625 -1.28125q1.0 -1.296875 1.0 -3.765625q0 -2.453125 -1.0 -3.71875q-0.984375 -1.265625 -2.921875 -1.265625q-1.90625 0 -2.890625 1.25q-0.96875 1.25 -0.96875 3.734375zm15.027344 -6.40625l0 8.328125q0 1.578125 0.71875 2.359375q0.71875 0.765625 2.234375 0.765625q2.015625 0 2.9375 -1.09375q0.9375 -1.109375 0.9375 -3.609375l0 -6.75l1.953125 0l0 12.84375l-1.609375 0l-0.28125 -1.71875l-0.109375 0q-0.59375 0.9375 -1.65625 1.453125q-1.0625 0.5 -2.421875 0.5q-2.34375 0 -3.515625 -1.109375q-1.15625 -1.125 -1.15625 -3.5625l0 -8.40625l1.96875 0zm18.761719 -0.234375q0.859375 0 1.53125 0.140625l-0.265625 1.796875q-0.796875 -0.171875 -1.40625 -0.171875q-1.5625 0 -2.671875 1.265625q-1.09375 1.265625 -1.09375 3.15625l0 6.890625l-1.953125 0l0 -12.84375l1.609375 0l0.21875 2.375l0.09375 0q0.71875 -1.25 1.71875 -1.921875q1.015625 -0.6875 2.21875 -0.6875zm18.453125 9.578125q0 1.78125 -1.34375 2.765625q-1.328125 0.96875 -3.734375 0.96875q-2.5625 0 -3.984375 -0.8125l0 -1.796875q0.921875 0.46875 1.984375 0.734375q1.0625 0.265625 2.046875 0.265625q1.515625 0 2.328125 -0.484375q0.828125 -0.484375 0.828125 -1.484375q0 -0.75 -0.65625 -1.28125q-0.640625 -0.53125 -2.53125 -1.265625q-1.78125 -0.65625 -2.546875 -1.15625q-0.75 -0.5 -1.125 -1.125q-0.359375 -0.640625 -0.359375 -1.515625q0 -1.578125 1.265625 -2.484375q1.28125 -0.90625 3.515625 -0.90625q2.0625 0 4.046875 0.84375l-0.6875 1.578125q-1.9375 -0.796875 -3.5 -0.796875q-1.390625 0 -2.09375 0.4375q-0.703125 0.4375 -0.703125 1.1875q0 0.515625 0.265625 0.890625q0.265625 0.359375 0.84375 0.6875q0.59375 0.328125 2.25 0.953125q2.296875 0.828125 3.09375 1.671875q0.796875 0.84375 0.796875 2.125zm5.1210938 3.5l-1.953125 0l0 -18.234375l1.953125 0l0 18.234375zm6.0703125 0l-1.953125 0l0 -12.84375l1.953125 0l0 12.84375zm-2.109375 -16.328125q0 -0.671875 0.328125 -0.96875q0.328125 -0.3125 0.8125 -0.3125q0.46875 0 0.8125 0.3125q0.34375 0.3125 0.34375 0.96875q0 0.65625 -0.34375 0.984375q-0.34375 0.3125 -0.8125 0.3125q-0.484375 0 -0.8125 -0.3125q-0.328125 -0.328125 -0.328125 -0.984375zm14.9765625 14.609375l-0.109375 0q-1.34375 1.953125 -4.03125 1.953125q-2.515625 0 -3.921875 -1.71875q-1.40625 -1.734375 -1.40625 -4.90625q0 -3.171875 1.40625 -4.921875q1.40625 -1.765625 3.921875 -1.765625q2.609375 0 4.0 1.890625l0.15625 0l-0.078125 -0.921875l-0.046875 -0.90625l0 -5.21875l1.9375 0l0 18.234375l-1.578125 0l-0.25 -1.71875zm-3.890625 0.328125q1.984375 0 2.875 -1.078125q0.90625 -1.09375 0.90625 -3.515625l0 -0.40625q0 -2.734375 -0.90625 -3.890625q-0.90625 -1.171875 -2.90625 -1.171875q-1.703125 0 -2.625 1.328125q-0.90625 1.328125 -0.90625 3.765625q0 2.453125 0.90625 3.71875q0.90625 1.25 2.65625 1.25zm15.269531 1.625q-2.84375 0 -4.5 -1.734375q-1.640625 -1.734375 -1.640625 -4.8125q0 -3.109375 1.53125 -4.9375q1.53125 -1.828125 4.109375 -1.828125q2.421875 0 3.828125 1.59375q1.40625 1.578125 1.40625 4.1875l0 1.21875l-8.859375 0q0.0625 2.265625 1.140625 3.4375q1.09375 1.171875 3.0625 1.171875q2.078125 0 4.09375 -0.859375l0 1.734375q-1.03125 0.4375 -1.953125 0.625q-0.90625 0.203125 -2.21875 0.203125zm-0.515625 -11.6875q-1.546875 0 -2.46875 1.015625q-0.921875 1.0 -1.09375 2.78125l6.71875 0q0 -1.84375 -0.828125 -2.8125q-0.8125 -0.984375 -2.328125 -0.984375zm25.886719 5.015625q0 3.140625 -1.59375 4.90625q-1.578125 1.765625 -4.359375 1.765625q-1.734375 0 -3.078125 -0.8125q-1.328125 -0.8125 -2.0625 -2.3125q-0.71875 -1.515625 -0.71875 -3.546875q0 -3.140625 1.5625 -4.890625q1.578125 -1.75 4.375 -1.75q2.6875 0 4.28125 1.796875q1.59375 1.78125 1.59375 4.84375zm-9.796875 0q0 2.46875 0.984375 3.765625q0.984375 1.28125 2.90625 1.28125q1.90625 0 2.890625 -1.28125q1.0 -1.296875 1.0 -3.765625q0 -2.453125 -1.0 -3.71875q-0.984375 -1.265625 -2.921875 -1.265625q-1.90625 0 -2.890625 1.25q-0.96875 1.25 -0.96875 3.734375zm21.996094 6.4375l0 -8.3125q0 -1.5625 -0.71875 -2.328125q-0.71875 -0.78125 -2.234375 -0.78125q-2.015625 0 -2.953125 1.09375q-0.9375 1.078125 -0.9375 3.59375l0 6.734375l-1.953125 0l0 -12.84375l1.578125 0l0.328125 1.75l0.09375 0q0.59375 -0.9375 1.671875 -1.453125q1.078125 -0.53125 2.40625 -0.53125q2.3125 0 3.484375 1.125q1.171875 1.109375 1.171875 3.578125l0 8.375l-1.9375 0zm19.996078 -8.984375l5.828125 0l0 8.34375q-1.359375 0.421875 -2.765625 0.640625q-1.40625 0.234375 -3.265625 0.234375q-3.890625 0 -6.0625 -2.3125q-2.15625 -2.3125 -2.15625 -6.484375q0 -2.671875 1.0625 -4.6875q1.078125 -2.015625 3.09375 -3.0625q2.015625 -1.0625 4.71875 -1.0625q2.75 0 5.109375 1.0l-0.765625 1.765625q-2.328125 -0.984375 -4.46875 -0.984375q-3.125 0 -4.890625 1.859375q-1.75 1.859375 -1.75 5.171875q0 3.46875 1.6875 5.265625q1.703125 1.78125 4.984375 1.78125q1.78125 0 3.46875 -0.40625l0 -5.28125l-3.828125 0l0 -1.78125zm20.738281 2.546875q0 3.140625 -1.59375 4.90625q-1.578125 1.765625 -4.359375 1.765625q-1.734375 0 -3.078125 -0.8125q-1.328125 -0.8125 -2.0625 -2.3125q-0.71875 -1.515625 -0.71875 -3.546875q0 -3.140625 1.5625 -4.890625q1.578125 -1.75 4.375 -1.75q2.6875 0 4.28125 1.796875q1.59375 1.78125 1.59375 4.84375zm-9.796875 0q0 2.46875 0.984375 3.765625q0.984375 1.28125 2.90625 1.28125q1.90625 0 2.890625 -1.28125q1.0 -1.296875 1.0 -3.765625q0 -2.453125 -1.0 -3.71875q-0.984375 -1.265625 -2.921875 -1.265625q-1.90625 0 -2.890625 1.25q-0.96875 1.25 -0.96875 3.734375zm24.292969 0q0 3.140625 -1.59375 4.90625q-1.578125 1.765625 -4.359375 1.765625q-1.734375 0 -3.078125 -0.8125q-1.328125 -0.8125 -2.0625 -2.3125q-0.71875 -1.515625 -0.71875 -3.546875q0 -3.140625 1.5625 -4.890625q1.578125 -1.75 4.375 -1.75q2.6875 0 4.28125 1.796875q1.59375 1.78125 1.59375 4.84375zm-9.796875 0q0 2.46875 0.984375 3.765625q0.984375 1.28125 2.90625 1.28125q1.90625 0 2.890625 -1.28125q1.0 -1.296875 1.0 -3.765625q0 -2.453125 -1.0 -3.71875q-0.984375 -1.265625 -2.921875 -1.265625q-1.90625 0 -2.890625 1.25q-0.96875 1.25 -0.96875 3.734375zm23.714844 -6.40625l0 1.234375l-2.375 0.28125q0.328125 0.40625 0.578125 1.078125q0.265625 0.65625 0.265625 1.484375q0 1.890625 -1.296875 3.015625q-1.28125 1.125 -3.53125 1.125q-0.578125 0 -1.078125 -0.09375q-1.25 0.65625 -1.25 1.640625q0 0.53125 0.4375 0.78125q0.4375 0.25 1.484375 0.25l2.28125 0q2.078125 0 3.1875 0.890625q1.125 0.875 1.125 2.546875q0 2.140625 -1.71875 3.25q-1.703125 1.125 -4.984375 1.125q-2.515625 0 -3.890625 -0.9375q-1.359375 -0.9375 -1.359375 -2.640625q0 -1.171875 0.75 -2.03125q0.75 -0.859375 2.109375 -1.171875q-0.484375 -0.21875 -0.828125 -0.6875q-0.328125 -0.46875 -0.328125 -1.09375q0 -0.703125 0.375 -1.21875q0.375 -0.53125 1.1875 -1.03125q-1.0 -0.40625 -1.625 -1.390625q-0.625 -0.984375 -0.625 -2.25q0 -2.109375 1.265625 -3.25q1.265625 -1.140625 3.578125 -1.140625q1.015625 0 1.828125 0.234375l4.4375 0zm-10.25 15.0q0 1.046875 0.875 1.578125q0.890625 0.546875 2.53125 0.546875q2.453125 0 3.625 -0.734375q1.171875 -0.734375 1.171875 -1.984375q0 -1.046875 -0.640625 -1.453125q-0.640625 -0.40625 -2.421875 -0.40625l-2.328125 0q-1.328125 0 -2.078125 0.625q-0.734375 0.640625 -0.734375 1.828125zm1.0625 -10.890625q0 1.34375 0.75 2.046875q0.765625 0.6875 2.125 0.6875q2.859375 0 2.859375 -2.765625q0 -2.890625 -2.890625 -2.890625q-1.375 0 -2.109375 0.734375q-0.734375 0.734375 -0.734375 2.1875zm13.7734375 8.734375l-1.953125 0l0 -18.234375l1.953125 0l0 18.234375zm9.5390625 0.234375q-2.84375 0 -4.5 -1.734375q-1.640625 -1.734375 -1.640625 -4.8125q0 -3.109375 1.53125 -4.9375q1.53125 -1.828125 4.109375 -1.828125q2.421875 0 3.828125 1.59375q1.40625 1.578125 1.40625 4.1875l0 1.21875l-8.859375 0q0.0625 2.265625 1.140625 3.4375q1.09375 1.171875 3.0625 1.171875q2.078125 0 4.09375 -0.859375l0 1.734375q-1.03125 0.4375 -1.953125 0.625q-0.90625 0.203125 -2.21875 0.203125zm-0.515625 -11.6875q-1.546875 0 -2.46875 1.015625q-0.921875 1.0 -1.09375 2.78125l6.71875 0q0 -1.84375 -0.828125 -2.8125q-0.8125 -0.984375 -2.328125 -0.984375zm24.761719 6.890625q0 2.265625 -1.640625 3.53125q-1.640625 1.265625 -4.453125 1.265625q-3.046875 0 -4.6875 -0.78125l0 -1.921875q1.046875 0.4375 2.28125 0.703125q1.25 0.25 2.46875 0.25q2.0 0 3.0 -0.75q1.015625 -0.765625 1.015625 -2.109375q0 -0.890625 -0.359375 -1.453125q-0.359375 -0.578125 -1.203125 -1.046875q-0.828125 -0.484375 -2.546875 -1.09375q-2.390625 -0.859375 -3.421875 -2.03125q-1.015625 -1.171875 -1.015625 -3.0625q0 -1.96875 1.484375 -3.140625q1.484375 -1.171875 3.9375 -1.171875q2.5625 0 4.703125 0.9375l-0.625 1.734375q-2.125 -0.890625 -4.125 -0.890625q-1.578125 0 -2.46875 0.6875q-0.890625 0.671875 -0.890625 1.875q0 0.890625 0.328125 1.46875q0.328125 0.5625 1.109375 1.03125q0.78125 0.46875 2.375 1.046875q2.703125 0.96875 3.71875 2.078125q1.015625 1.09375 1.015625 2.84375zm5.15625 4.5625l-1.953125 0l0 -18.234375l1.953125 0l0 18.234375zm6.0703125 0l-1.953125 0l0 -12.84375l1.953125 0l0 12.84375zm-2.109375 -16.328125q0 -0.671875 0.328125 -0.96875q0.328125 -0.3125 0.8125 -0.3125q0.46875 0 0.8125 0.3125q0.34375 0.3125 0.34375 0.96875q0 0.65625 -0.34375 0.984375q-0.34375 0.3125 -0.8125 0.3125q-0.484375 0 -0.8125 -0.3125q-0.328125 -0.328125 -0.328125 -0.984375zm14.9765625 14.609375l-0.109375 0q-1.34375 1.953125 -4.03125 1.953125q-2.515625 0 -3.921875 -1.71875q-1.40625 -1.734375 -1.40625 -4.90625q0 -3.171875 1.40625 -4.921875q1.40625 -1.765625 3.921875 -1.765625q2.609375 0 4.0 1.890625l0.15625 0l-0.078125 -0.921875l-0.046875 -0.90625l0 -5.21875l1.9375 0l0 18.234375l-1.578125 0l-0.25 -1.71875zm-3.890625 0.328125q1.984375 0 2.875 -1.078125q0.90625 -1.09375 0.90625 -3.515625l0 -0.40625q0 -2.734375 -0.90625 -3.890625q-0.90625 -1.171875 -2.90625 -1.171875q-1.703125 0 -2.625 1.328125q-0.90625 1.328125 -0.90625 3.765625q0 2.453125 0.90625 3.71875q0.90625 1.25 2.65625 1.25zm15.269531 1.625q-2.84375 0 -4.5 -1.734375q-1.640625 -1.734375 -1.640625 -4.8125q0 -3.109375 1.53125 -4.9375q1.53125 -1.828125 4.109375 -1.828125q2.421875 0 3.828125 1.59375q1.40625 1.578125 1.40625 4.1875l0 1.21875l-8.859375 0q0.0625 2.265625 1.140625 3.4375q1.09375 1.171875 3.0625 1.171875q2.078125 0 4.09375 -0.859375l0 1.734375q-1.03125 0.4375 -1.953125 0.625q-0.90625 0.203125 -2.21875 0.203125zm-0.515625 -11.6875q-1.546875 0 -2.46875 1.015625q-0.921875 1.0 -1.09375 2.78125l6.71875 0q0 -1.84375 -0.828125 -2.8125q-0.8125 -0.984375 -2.328125 -0.984375zm16.839844 7.953125q0 1.78125 -1.34375 2.765625q-1.328125 0.96875 -3.734375 0.96875q-2.5625 0 -3.984375 -0.8125l0 -1.796875q0.921875 0.46875 1.984375 0.734375q1.0625 0.265625 2.046875 0.265625q1.515625 0 2.328125 -0.484375q0.828125 -0.484375 0.828125 -1.484375q0 -0.75 -0.65625 -1.28125q-0.640625 -0.53125 -2.53125 -1.265625q-1.78125 -0.65625 -2.546875 -1.15625q-0.75 -0.5 -1.125 -1.125q-0.359375 -0.640625 -0.359375 -1.515625q0 -1.578125 1.265625 -2.484375q1.28125 -0.90625 3.515625 -0.90625q2.0625 0 4.046875 0.84375l-0.6875 1.578125q-1.9375 -0.796875 -3.5 -0.796875q-1.390625 0 -2.09375 0.4375q-0.703125 0.4375 -0.703125 1.1875q0 0.515625 0.265625 0.890625q0.265625 0.359375 0.84375 0.6875q0.59375 0.328125 2.25 0.953125q2.296875 0.828125 3.09375 1.671875q0.796875 0.84375 0.796875 2.125zm5.2148438 0.703125l0.171875 0.28125q-0.3125 1.171875 -0.890625 2.71875q-0.5625 1.5625 -1.1875 2.890625l-1.46875 0q0.328125 -1.21875 0.703125 -3.015625q0.375 -1.796875 0.53125 -2.875l2.140625 0zm14.2265625 1.421875q0.515625 0 0.984375 -0.078125q0.484375 -0.078125 0.765625 -0.15625l0 1.484375q-0.3125 0.15625 -0.9375 0.25q-0.609375 0.109375 -1.09375 0.109375q-3.734375 0 -3.734375 -3.921875l0 -7.640625l-1.84375 0l0 -0.9375l1.84375 -0.8125l0.828125 -2.75l1.125 0l0 2.984375l3.71875 0l0 1.515625l-3.71875 0l0 7.546875q0 1.171875 0.546875 1.796875q0.546875 0.609375 1.515625 0.609375zm13.113281 1.375l0 -8.3125q0 -1.5625 -0.71875 -2.328125q-0.71875 -0.78125 -2.234375 -0.78125q-2.03125 0 -2.96875 1.109375q-0.921875 1.09375 -0.921875 3.59375l0 6.71875l-1.953125 0l0 -18.234375l1.953125 0l0 5.515625q0 1.0 -0.09375 1.65625l0.109375 0q0.578125 -0.921875 1.640625 -1.453125q1.0625 -0.546875 2.421875 -0.546875q2.34375 0 3.515625 1.125q1.1875 1.125 1.1875 3.5625l0 8.375l-1.9375 0zm11.355469 0.234375q-2.84375 0 -4.5 -1.734375q-1.640625 -1.734375 -1.640625 -4.8125q0 -3.109375 1.53125 -4.9375q1.53125 -1.828125 4.109375 -1.828125q2.421875 0 3.828125 1.59375q1.40625 1.578125 1.40625 4.1875l0 1.21875l-8.859375 0q0.0625 2.265625 1.140625 3.4375q1.09375 1.171875 3.0625 1.171875q2.078125 0 4.09375 -0.859375l0 1.734375q-1.03125 0.4375 -1.953125 0.625q-0.90625 0.203125 -2.21875 0.203125zm-0.515625 -11.6875q-1.546875 0 -2.46875 1.015625q-0.921875 1.0 -1.09375 2.78125l6.71875 0q0 -1.84375 -0.828125 -2.8125q-0.8125 -0.984375 -2.328125 -0.984375zm17.355469 11.453125l0 -8.3125q0 -1.5625 -0.71875 -2.328125q-0.71875 -0.78125 -2.234375 -0.78125q-2.015625 0 -2.953125 1.09375q-0.9375 1.078125 -0.9375 3.59375l0 6.734375l-1.953125 0l0 -12.84375l1.578125 0l0.328125 1.75l0.09375 0q0.59375 -0.9375 1.671875 -1.453125q1.078125 -0.53125 2.40625 -0.53125q2.3125 0 3.484375 1.125q1.171875 1.109375 1.171875 3.578125l0 8.375l-1.9375 0zm17.308594 0.234375q-2.796875 0 -4.328125 -1.71875q-1.53125 -1.71875 -1.53125 -4.859375q0 -3.21875 1.546875 -4.96875q1.5625 -1.765625 4.4375 -1.765625q0.921875 0 1.84375 0.203125q0.9375 0.1875 1.453125 0.46875l-0.59375 1.640625q-0.640625 -0.25 -1.40625 -0.421875q-0.765625 -0.171875 -1.34375 -0.171875q-3.921875 0 -3.921875 5.0q0 2.359375 0.953125 3.625q0.96875 1.265625 2.84375 1.265625q1.59375 0 3.28125 -0.6875l0 1.71875q-1.28125 0.671875 -3.234375 0.671875zm8.238281 -0.234375l-1.953125 0l0 -18.234375l1.953125 0l0 18.234375zm6.0703125 0l-1.953125 0l0 -12.84375l1.953125 0l0 12.84375zm-2.109375 -16.328125q0 -0.671875 0.328125 -0.96875q0.328125 -0.3125 0.8125 -0.3125q0.46875 0 0.8125 0.3125q0.34375 0.3125 0.34375 0.96875q0 0.65625 -0.34375 0.984375q-0.34375 0.3125 -0.8125 0.3125q-0.484375 0 -0.8125 -0.3125q-0.328125 -0.328125 -0.328125 -0.984375zm11.3671875 16.5625q-2.796875 0 -4.328125 -1.71875q-1.53125 -1.71875 -1.53125 -4.859375q0 -3.21875 1.546875 -4.96875q1.5625 -1.765625 4.4375 -1.765625q0.921875 0 1.8437805 0.203125q0.9375 0.1875 1.453125 0.46875l-0.59375 1.640625q-0.640625 -0.25 -1.40625 -0.421875q-0.7656555 -0.171875 -1.3437805 -0.171875q-3.921875 0 -3.921875 5.0q0 2.359375 0.953125 3.625q0.96875 1.265625 2.84375 1.265625q1.5937805 0 3.2812805 -0.6875l0 1.71875q-1.28125 0.671875 -3.2344055 0.671875zm8.207062 -6.8125q0.5 -0.71875 1.53125 -1.875l4.15625 -4.390625l2.3125 0l-5.203125 5.46875l5.5625 7.375l-2.359375 0l-4.53125 -6.078125l-1.46875 1.265625l0 4.8125l-1.921875 0l0 -18.234375l1.921875 0l0 9.671875q0 0.640625 -0.09375 1.984375l0.09375 0z" fill-rule="nonzero"/><path fill="#009668" d="m538.17365 164.9875l-1.984375 0l0 -17.140625l9.546875 0l0 1.78125l-7.5625 0l0 6.265625l7.109375 0l0 1.765625l-7.109375 0l0 7.328125zm12.058594 0l-1.953125 0l0 -12.84375l1.953125 0l0 12.84375zm-2.109375 -16.328125q0 -0.671875 0.328125 -0.96875q0.328125 -0.3125 0.8125 -0.3125q0.46875 0 0.8125 0.3125q0.34375 0.3125 0.34375 0.96875q0 0.65625 -0.34375 0.984375q-0.34375 0.3125 -0.8125 0.3125q-0.484375 0 -0.8125 -0.3125q-0.328125 -0.328125 -0.328125 -0.984375zm8.1796875 16.328125l-1.953125 0l0 -18.234375l1.953125 0l0 18.234375zm9.5390625 0.234375q-2.84375 0 -4.5 -1.734375q-1.640625 -1.734375 -1.640625 -4.8125q0 -3.109375 1.53125 -4.9375q1.53125 -1.828125 4.109375 -1.828125q2.421875 0 3.828125 1.59375q1.40625 1.578125 1.40625 4.1875l0 1.21875l-8.859375 0q0.0625 2.265625 1.140625 3.4375q1.09375 1.171875 3.0625 1.171875q2.078125 0 4.09375 -0.859375l0 1.734375q-1.03125 0.4375 -1.953125 0.625q-0.90625 0.203125 -2.21875 0.203125zm-0.515625 -11.6875q-1.546875 0 -2.46875 1.015625q-0.921875 1.0 -1.09375 2.78125l6.71875 0q0 -1.84375 -0.828125 -2.8125q-0.8125 -0.984375 -2.328125 -0.984375zm13.949219 6.84375l9.171875 -3.8125l-9.171875 -4.375l0 -1.75l11.265625 5.609375l0 1.15625l-11.265625 4.9375l0 -1.765625zm34.76953 -4.125q0 4.25 -2.3125 6.5q-2.296875 2.234375 -6.609375 2.234375l-4.75 0l0 -17.140625l5.25 0q4.0 0 6.203125 2.21875q2.21875 2.21875 2.21875 6.1875zm-2.109375 0.078125q0 -3.359375 -1.6875 -5.046875q-1.671875 -1.703125 -4.984375 -1.703125l-2.90625 0l0 13.6875l2.4375 0q3.5625 0 5.34375 -1.75q1.796875 -1.765625 1.796875 -5.1875zm16.730469 2.21875q0 3.140625 -1.59375 4.90625q-1.578125 1.765625 -4.359375 1.765625q-1.734375 0 -3.078125 -0.8125q-1.328125 -0.8125 -2.0625 -2.3125q-0.71875 -1.515625 -0.71875 -3.546875q0 -3.140625 1.5625 -4.890625q1.578125 -1.75 4.375 -1.75q2.6875 0 4.28125 1.796875q1.59375 1.78125 1.59375 4.84375zm-9.796875 0q0 2.46875 0.984375 3.765625q0.984375 1.28125 2.90625 1.28125q1.90625 0 2.890625 -1.28125q1.0 -1.296875 1.0 -3.765625q0 -2.453125 -1.0 -3.71875q-0.984375 -1.265625 -2.921875 -1.265625q-1.90625 0 -2.890625 1.25q-0.96875 1.25 -0.96875 3.734375zm23.683594 6.4375l-2.34375 -7.53125q-0.234375 -0.703125 -0.84375 -3.140625l-0.09375 0q-0.46875 2.046875 -0.8125 3.15625l-2.421875 7.515625l-2.25 0l-3.515625 -12.84375l2.046875 0q1.234375 4.84375 1.890625 7.375q0.65625 2.53125 0.75 3.40625l0.09375 0q0.125 -0.671875 0.40625 -1.734375q0.296875 -1.0625 0.5 -1.671875l2.359375 -7.375l2.109375 0l2.296875 7.375q0.65625 2.015625 0.890625 3.375l0.09375 0q0.046875 -0.421875 0.25 -1.296875q0.203125 -0.875 2.4375 -9.453125l2.015625 0l-3.546875 12.84375l-2.3125 0zm16.980469 0l0 -8.3125q0 -1.5625 -0.71875 -2.328125q-0.71875 -0.78125 -2.234375 -0.78125q-2.015625 0 -2.953125 1.09375q-0.9375 1.078125 -0.9375 3.59375l0 6.734375l-1.953125 0l0 -12.84375l1.578125 0l0.328125 1.75l0.09375 0q0.59375 -0.9375 1.671875 -1.453125q1.078125 -0.53125 2.40625 -0.53125q2.3125 0 3.484375 1.125q1.171875 1.109375 1.171875 3.578125l0 8.375l-1.9375 0zm7.8867188 0l-1.953125 0l0 -18.234375l1.953125 0l0 18.234375zm15.2109375 -6.4375q0 3.140625 -1.59375 4.90625q-1.578125 1.765625 -4.359375 1.765625q-1.734375 0 -3.078125 -0.8125q-1.328125 -0.8125 -2.0625 -2.3125q-0.71875 -1.515625 -0.71875 -3.546875q0 -3.140625 1.5625 -4.890625q1.578125 -1.75 4.375 -1.75q2.6875 0 4.28125 1.796875q1.59375 1.78125 1.59375 4.84375zm-9.796875 0q0 2.46875 0.984375 3.765625q0.984375 1.28125 2.90625 1.28125q1.90625 0 2.890625 -1.28125q1.0 -1.296875 1.0 -3.765625q0 -2.453125 -1.0 -3.71875q-0.984375 -1.265625 -2.921875 -1.265625q-1.90625 0 -2.890625 1.25q-0.96875 1.25 -0.96875 3.734375zm21.105469 6.4375l-0.390625 -1.828125l-0.09375 0q-0.96875 1.203125 -1.921875 1.640625q-0.953125 0.421875 -2.375 0.421875q-1.921875 0 -3.0 -0.984375q-1.078125 -0.984375 -1.078125 -2.796875q0 -3.890625 6.21875 -4.078125l2.171875 -0.078125l0 -0.796875q0 -1.515625 -0.65625 -2.234375q-0.640625 -0.71875 -2.0625 -0.71875q-1.609375 0 -3.640625 0.984375l-0.59375 -1.484375q0.953125 -0.515625 2.078125 -0.8125q1.125 -0.296875 2.265625 -0.296875q2.296875 0 3.40625 1.03125q1.109375 1.015625 1.109375 3.265625l0 8.765625l-1.4375 0zm-4.40625 -1.375q1.828125 0 2.859375 -0.984375q1.03125 -1.0 1.03125 -2.796875l0 -1.15625l-1.9375 0.078125q-2.328125 0.078125 -3.359375 0.71875q-1.015625 0.640625 -1.015625 1.984375q0 1.0625 0.640625 1.609375q0.640625 0.546875 1.78125 0.546875zm18.597656 -0.34375l-0.109375 0q-1.34375 1.953125 -4.03125 1.953125q-2.515625 0 -3.921875 -1.71875q-1.40625 -1.734375 -1.40625 -4.90625q0 -3.171875 1.40625 -4.921875q1.40625 -1.765625 3.921875 -1.765625q2.609375 0 4.0 1.890625l0.15625 0l-0.078125 -0.921875l-0.046875 -0.90625l0 -5.21875l1.9375 0l0 18.234375l-1.578125 0l-0.25 -1.71875zm-3.890625 0.328125q1.984375 0 2.875 -1.078125q0.90625 -1.09375 0.90625 -3.515625l0 -0.40625q0 -2.734375 -0.90625 -3.890625q-0.90625 -1.171875 -2.90625 -1.171875q-1.703125 0 -2.625 1.328125q-0.90625 1.328125 -0.90625 3.765625q0 2.453125 0.90625 3.71875q0.90625 1.25 2.65625 1.25zm23.988281 1.390625l-0.390625 -1.828125l-0.09375 0q-0.96875 1.203125 -1.921875 1.640625q-0.953125 0.421875 -2.375 0.421875q-1.921875 0 -3.0 -0.984375q-1.078125 -0.984375 -1.078125 -2.796875q0 -3.890625 6.21875 -4.078125l2.171875 -0.078125l0 -0.796875q0 -1.515625 -0.65625 -2.234375q-0.640625 -0.71875 -2.0625 -0.71875q-1.609375 0 -3.640625 0.984375l-0.59375 -1.484375q0.953125 -0.515625 2.078125 -0.8125q1.125 -0.296875 2.265625 -0.296875q2.296875 0 3.40625 1.03125q1.109375 1.015625 1.109375 3.265625l0 8.765625l-1.4375 0zm-4.40625 -1.375q1.828125 0 2.859375 -0.984375q1.03125 -1.0 1.03125 -2.796875l0 -1.15625l-1.9375 0.078125q-2.328125 0.078125 -3.359375 0.71875q-1.015625 0.640625 -1.015625 1.984375q0 1.0625 0.640625 1.609375q0.640625 0.546875 1.78125 0.546875zm18.128906 -2.125q0 1.78125 -1.34375 2.765625q-1.328125 0.96875 -3.734375 0.96875q-2.5625 0 -3.984375 -0.8125l0 -1.796875q0.921875 0.46875 1.984375 0.734375q1.0625 0.265625 2.046875 0.265625q1.515625 0 2.328125 -0.484375q0.828125 -0.484375 0.828125 -1.484375q0 -0.75 -0.65625 -1.28125q-0.640625 -0.53125 -2.53125 -1.265625q-1.78125 -0.65625 -2.546875 -1.15625q-0.75 -0.5 -1.125 -1.125q-0.359375 -0.640625 -0.359375 -1.515625q0 -1.578125 1.265625 -2.484375q1.28125 -0.90625 3.515625 -0.90625q2.0625 0 4.046875 0.84375l-0.6875 1.578125q-1.9375 -0.796875 -3.5 -0.796875q-1.390625 0 -2.09375 0.4375q-0.703125 0.4375 -0.703125 1.1875q0 0.515625 0.265625 0.890625q0.265625 0.359375 0.84375 0.6875q0.59375 0.328125 2.25 0.953125q2.296875 0.828125 3.09375 1.671875q0.796875 0.84375 0.796875 2.125zm8.558594 -1.109375l9.171875 -3.8125l-9.171875 -4.375l0 -1.75l11.265625 5.609375l0 1.15625l-11.265625 4.9375l0 -1.765625zm30.769531 0.046875q0 2.265625 -1.640625 3.53125q-1.640625 1.265625 -4.453125 1.265625q-3.046875 0 -4.6875 -0.78125l0 -1.921875q1.046875 0.4375 2.28125 0.703125q1.25 0.25 2.46875 0.25q2.0 0 3.0 -0.75q1.015625 -0.765625 1.015625 -2.109375q0 -0.890625 -0.359375 -1.453125q-0.359375 -0.578125 -1.203125 -1.046875q-0.828125 -0.484375 -2.546875 -1.09375q-2.390625 -0.859375 -3.421875 -2.03125q-1.015625 -1.171875 -1.015625 -3.0625q0 -1.96875 1.484375 -3.140625q1.484375 -1.171875 3.9375 -1.171875q2.5625 0 4.703125 0.9375l-0.625 1.734375q-2.125 -0.890625 -4.125 -0.890625q-1.578125 0 -2.46875 0.6875q-0.890625 0.671875 -0.890625 1.875q0 0.890625 0.328125 1.46875q0.328125 0.5625 1.109375 1.03125q0.78125 0.46875 2.375 1.046875q2.703125 0.96875 3.71875 2.078125q1.015625 1.09375 1.015625 2.84375zm8.34375 4.796875q-2.796875 0 -4.328125 -1.71875q-1.53125 -1.71875 -1.53125 -4.859375q0 -3.21875 1.546875 -4.96875q1.5625 -1.765625 4.4375 -1.765625q0.921875 0 1.84375 0.203125q0.9375 0.1875 1.453125 0.46875l-0.59375 1.640625q-0.640625 -0.25 -1.40625 -0.421875q-0.765625 -0.171875 -1.34375 -0.171875q-3.921875 0 -3.921875 5.0q0 2.359375 0.953125 3.625q0.96875 1.265625 2.84375 1.265625q1.59375 0 3.28125 -0.6875l0 1.71875q-1.28125 0.671875 -3.234375 0.671875zm14.191406 -0.234375l-0.390625 -1.828125l-0.09375 0q-0.96875 1.203125 -1.921875 1.640625q-0.953125 0.421875 -2.375 0.421875q-1.921875 0 -3.0 -0.984375q-1.078125 -0.984375 -1.078125 -2.796875q0 -3.890625 6.21875 -4.078125l2.171875 -0.078125l0 -0.796875q0 -1.515625 -0.65625 -2.234375q-0.640625 -0.71875 -2.0625 -0.71875q-1.609375 0 -3.640625 0.984375l-0.59375 -1.484375q0.953125 -0.515625 2.078125 -0.8125q1.125 -0.296875 2.265625 -0.296875q2.296875 0 3.40625 1.03125q1.109375 1.015625 1.109375 3.265625l0 8.765625l-1.4375 0zm-4.40625 -1.375q1.828125 0 2.859375 -0.984375q1.03125 -1.0 1.03125 -2.796875l0 -1.15625l-1.9375 0.078125q-2.328125 0.078125 -3.359375 0.71875q-1.015625 0.640625 -1.015625 1.984375q0 1.0625 0.640625 1.609375q0.640625 0.546875 1.78125 0.546875zm11.800781 1.375l-1.953125 0l0 -18.234375l1.953125 0l0 18.234375zm12.0234375 0l-0.390625 -1.828125l-0.09375 0q-0.96875 1.203125 -1.921875 1.640625q-0.953125 0.421875 -2.375 0.421875q-1.921875 0 -3.0 -0.984375q-1.078125 -0.984375 -1.078125 -2.796875q0 -3.890625 6.21875 -4.078125l2.171875 -0.078125l0 -0.796875q0 -1.515625 -0.65625 -2.234375q-0.640625 -0.71875 -2.0625 -0.71875q-1.609375 0 -3.640625 0.984375l-0.59375 -1.484375q0.953125 -0.515625 2.078125 -0.8125q1.125 -0.296875 2.265625 -0.296875q2.296875 0 3.40625 1.03125q1.109375 1.015625 1.109375 3.265625l0 8.765625l-1.4375 0zm-4.40625 -1.375q1.828125 0 2.859375 -0.984375q1.03125 -1.0 1.03125 -2.796875l0 -1.15625l-1.9375 0.078125q-2.328125 0.078125 -3.359375 0.71875q-1.015625 0.640625 -1.015625 1.984375q0 1.0625 0.640625 1.609375q0.640625 0.546875 1.78125 0.546875zm15.832031 -11.6875q2.53125 0 3.921875 1.734375q1.40625 1.734375 1.40625 4.890625q0 3.171875 -1.421875 4.921875q-1.40625 1.75 -3.90625 1.75q-1.265625 0 -2.296875 -0.453125q-1.03125 -0.46875 -1.734375 -1.4375l-0.140625 0l-0.421875 1.65625l-1.390625 0l0 -18.234375l1.953125 0l0 4.421875q0 1.5 -0.09375 2.671875l0.09375 0q1.359375 -1.921875 4.03125 -1.921875zm-0.28125 1.640625q-2.0 0 -2.875 1.140625q-0.875 1.140625 -0.875 3.84375q0 2.703125 0.890625 3.875q0.90625 1.171875 2.90625 1.171875q1.78125 0 2.65625 -1.3125q0.890625 -1.3125 0.890625 -3.75q0 -2.515625 -0.890625 -3.734375q-0.875 -1.234375 -2.703125 -1.234375zm10.957031 11.421875l-1.953125 0l0 -18.234375l1.953125 0l0 18.234375zm9.5390625 0.234375q-2.84375 0 -4.5 -1.734375q-1.640625 -1.734375 -1.640625 -4.8125q0 -3.109375 1.53125 -4.9375q1.53125 -1.828125 4.109375 -1.828125q2.421875 0 3.828125 1.59375q1.40625 1.578125 1.40625 4.1875l0 1.21875l-8.859375 0q0.0625 2.265625 1.140625 3.4375q1.09375 1.171875 3.0625 1.171875q2.078125 0 4.09375 -0.859375l0 1.734375q-1.03125 0.4375 -1.953125 0.625q-0.90625 0.203125 -2.21875 0.203125zm-0.515625 -11.6875q-1.546875 0 -2.46875 1.015625q-0.921875 1.0 -1.09375 2.78125l6.71875 0q0 -1.84375 -0.828125 -2.8125q-0.8125 -0.984375 -2.328125 -0.984375z" fill-rule="nonzero"/><path fill="#009668" d="m53.865036 180.84688l2.140625 0l-6.171875 17.140625l-1.96875 0l-6.140625 -17.140625l2.109375 0l3.9375 11.09375q0.6875 1.90625 1.078125 3.71875q0.421875 -1.90625 1.109375 -3.796875l3.90625 -11.015625zm9.628906 17.375q-2.84375 0 -4.5 -1.734375q-1.640625 -1.734375 -1.640625 -4.8125q0 -3.109375 1.53125 -4.9375q1.53125 -1.828125 4.109375 -1.828125q2.421875 0 3.828125 1.59375q1.40625 1.578125 1.40625 4.1875l0 1.21875l-8.859375 0q0.0625 2.265625 1.140625 3.4375q1.09375 1.171875 3.0625 1.171875q2.078125 0 4.09375 -0.859375l0 1.734375q-1.03125 0.4375 -1.953125 0.625q-0.90625 0.203125 -2.21875 0.203125zm-0.515625 -11.6875q-1.546875 0 -2.46875 1.015625q-0.921875 1.0 -1.09375 2.78125l6.71875 0q0 -1.84375 -0.828125 -2.8125q-0.8125 -0.984375 -2.328125 -0.984375zm13.699219 11.6875q-2.796875 0 -4.328125 -1.71875q-1.53125 -1.71875 -1.53125 -4.859375q0 -3.21875 1.546875 -4.96875q1.5625 -1.765625 4.4375 -1.765625q0.921875 0 1.84375 0.203125q0.9375 0.1875 1.453125 0.46875l-0.59375 1.640625q-0.640625 -0.25 -1.40625 -0.421875q-0.765625 -0.171875 -1.34375 -0.171875q-3.921875 0 -3.921875 5.0q0 2.359375 0.953125 3.625q0.96875 1.265625 2.84375 1.265625q1.59375 0 3.28125 -0.6875l0 1.71875q-1.28125 0.671875 -3.234375 0.671875zm10.441406 -1.609375q0.515625 0 0.984375 -0.078125q0.484375 -0.078125 0.765625 -0.15625l0 1.484375q-0.3125 0.15625 -0.9375 0.25q-0.609375 0.109375 -1.09375 0.109375q-3.734375 0 -3.734375 -3.921875l0 -7.640625l-1.84375 0l0 -0.9375l1.84375 -0.8125l0.828125 -2.75l1.125 0l0 2.984375l3.71875 0l0 1.515625l-3.71875 0l0 7.546875q0 1.171875 0.546875 1.796875q0.546875 0.609375 1.515625 0.609375zm15.410156 -5.0625q0 3.140625 -1.59375 4.90625q-1.578125 1.765625 -4.359375 1.765625q-1.734375 0 -3.078125 -0.8125q-1.328125 -0.8125 -2.0625 -2.3125q-0.71875 -1.515625 -0.71875 -3.546875q0 -3.140625 1.5625 -4.890625q1.578125 -1.75 4.375 -1.75q2.6875 0 4.28125 1.796875q1.59375 1.78125 1.59375 4.84375zm-9.796875 0q0 2.46875 0.984375 3.765625q0.984375 1.28125 2.90625 1.28125q1.90625 0 2.890625 -1.28125q1.0 -1.296875 1.0 -3.765625q0 -2.453125 -1.0 -3.71875q-0.984375 -1.265625 -2.921875 -1.265625q-1.90625 0 -2.890625 1.25q-0.96875 1.25 -0.96875 3.734375zm19.058594 -6.640625q0.859375 0 1.53125 0.140625l-0.265625 1.796875q-0.796875 -0.171875 -1.40625 -0.171875q-1.5625 0 -2.671875 1.265625q-1.09375 1.265625 -1.09375 3.15625l0 6.890625l-1.953125 0l0 -12.84375l1.609375 0l0.21875 2.375l0.09375 0q0.71875 -1.25 1.71875 -1.921875q1.015625 -0.6875 2.21875 -0.6875zm18.0 4.09375l5.828125 0l0 8.34375q-1.359375 0.421875 -2.765625 0.640625q-1.40625 0.234375 -3.265625 0.234375q-3.890625 0 -6.0625 -2.3125q-2.15625 -2.3125 -2.15625 -6.484375q0 -2.671875 1.0625 -4.6875q1.078125 -2.015625 3.09375 -3.0625q2.015625 -1.0625 4.71875 -1.0625q2.75 0 5.109375 1.0l-0.765625 1.765625q-2.328125 -0.984375 -4.46875 -0.984375q-3.125 0 -4.890625 1.859375q-1.75 1.859375 -1.75 5.171875q0 3.46875 1.6875 5.265625q1.703125 1.78125 4.984375 1.78125q1.78125 0 3.46875 -0.40625l0 -5.28125l-3.828125 0l0 -1.78125zm15.503906 -4.09375q0.859375 0 1.53125 0.140625l-0.265625 1.796875q-0.796875 -0.171875 -1.40625 -0.171875q-1.5625 0 -2.671875 1.265625q-1.09375 1.265625 -1.09375 3.15625l0 6.890625l-1.953125 0l0 -12.84375l1.609375 0l0.21875 2.375l0.09375 0q0.71875 -1.25 1.71875 -1.921875q1.015625 -0.6875 2.21875 -0.6875zm11.84375 13.078125l-0.390625 -1.828125l-0.09375 0q-0.96875 1.203125 -1.921875 1.640625q-0.953125 0.421875 -2.375 0.421875q-1.921875 0 -3.0 -0.984375q-1.078125 -0.984375 -1.078125 -2.796875q0 -3.890625 6.21875 -4.078125l2.171875 -0.078125l0 -0.796875q0 -1.515625 -0.65625 -2.234375q-0.640625 -0.71875 -2.0625 -0.71875q-1.609375 0 -3.640625 0.984375l-0.59375 -1.484375q0.953125 -0.515625 2.078125 -0.8125q1.125 -0.296875 2.265625 -0.296875q2.296875 0 3.40625 1.03125q1.109375 1.015625 1.109375 3.265625l0 8.765625l-1.4375 0zm-4.40625 -1.375q1.828125 0 2.859375 -0.984375q1.03125 -1.0 1.03125 -2.796875l0 -1.15625l-1.9375 0.078125q-2.328125 0.078125 -3.359375 0.71875q-1.015625 0.640625 -1.015625 1.984375q0 1.0625 0.640625 1.609375q0.640625 0.546875 1.78125 0.546875zm15.832031 1.609375q-1.265625 0 -2.296875 -0.453125q-1.03125 -0.46875 -1.734375 -1.4375l-0.140625 0q0.140625 1.125 0.140625 2.140625l0 5.28125l-1.953125 0l0 -18.609375l1.578125 0l0.28125 1.75l0.09375 0q0.75 -1.046875 1.734375 -1.515625q1.0 -0.46875 2.296875 -0.46875q2.546875 0 3.9375 1.75q1.390625 1.734375 1.390625 4.890625q0 3.171875 -1.421875 4.921875q-1.40625 1.75 -3.90625 1.75zm-0.28125 -11.65625q-1.96875 0 -2.859375 1.09375q-0.875 1.078125 -0.890625 3.453125l0 0.4375q0 2.703125 0.890625 3.875q0.90625 1.171875 2.90625 1.171875q1.65625 0 2.59375 -1.34375q0.953125 -1.359375 0.953125 -3.71875q0 -2.40625 -0.953125 -3.6875q-0.9375 -1.28125 -2.640625 -1.28125zm17.800781 11.421875l0 -8.3125q0 -1.5625 -0.71875 -2.328125q-0.71875 -0.78125 -2.234375 -0.78125q-2.03125 0 -2.96875 1.109375q-0.921875 1.09375 -0.921875 3.59375l0 6.71875l-1.953125 0l0 -18.234375l1.953125 0l0 5.515625q0 1.0 -0.09375 1.65625l0.109375 0q0.578125 -0.921875 1.640625 -1.453125q1.0625 -0.546875 2.421875 -0.546875q2.34375 0 3.515625 1.125q1.1875 1.125 1.1875 3.5625l0 8.375l-1.9375 0zm7.8867188 0l-1.953125 0l0 -12.84375l1.953125 0l0 12.84375zm-2.109375 -16.328125q0 -0.671875 0.328125 -0.96875q0.328125 -0.3125 0.8125 -0.3125q0.46875 0 0.8125 0.3125q0.34375 0.3125 0.34375 0.96875q0 0.65625 -0.34375 0.984375q-0.34375 0.3125 -0.8125 0.3125q-0.484375 0 -0.8125 -0.3125q-0.328125 -0.328125 -0.328125 -0.984375zm11.3671875 16.5625q-2.796875 0 -4.328125 -1.71875q-1.53125 -1.71875 -1.53125 -4.859375q0 -3.21875 1.546875 -4.96875q1.5625 -1.765625 4.4375 -1.765625q0.921875 0 1.84375 0.203125q0.9375 0.1875 1.453125 0.46875l-0.59375 1.640625q-0.640625 -0.25 -1.40625 -0.421875q-0.765625 -0.171875 -1.34375 -0.171875q-3.921875 0 -3.921875 5.0q0 2.359375 0.953125 3.625q0.96875 1.265625 2.84375 1.265625q1.59375 0 3.28125 -0.6875l0 1.71875q-1.28125 0.671875 -3.234375 0.671875zm14.566406 -3.734375q0 1.78125 -1.34375 2.765625q-1.328125 0.96875 -3.734375 0.96875q-2.5625 0 -3.984375 -0.8125l0 -1.796875q0.921875 0.46875 1.984375 0.734375q1.0625 0.265625 2.046875 0.265625q1.515625 0 2.328125 -0.484375q0.828125 -0.484375 0.828125 -1.484375q0 -0.75 -0.65625 -1.28125q-0.640625 -0.53125 -2.53125 -1.265625q-1.78125 -0.65625 -2.546875 -1.15625q-0.75 -0.5 -1.125 -1.125q-0.359375 -0.640625 -0.359375 -1.515625q0 -1.578125 1.265625 -2.484375q1.28125 -0.90625 3.515625 -0.90625q2.0625 0 4.046875 0.84375l-0.6875 1.578125q-1.9375 -0.796875 -3.5 -0.796875q-1.390625 0 -2.09375 0.4375q-0.703125 0.4375 -0.703125 1.1875q0 0.515625 0.265625 0.890625q0.265625 0.359375 0.84375 0.6875q0.59375 0.328125 2.25 0.953125q2.296875 0.828125 3.09375 1.671875q0.796875 0.84375 0.796875 2.125zm8.308594 -3.078125q0 -3.109375 0.90625 -5.8125q0.90625 -2.703125 2.609375 -4.75l1.90625 0q-1.6875 2.265625 -2.546875 4.984375q-0.84375 2.703125 -0.84375 5.5625q0 2.8125 0.859375 5.5q0.875 2.671875 2.5 4.890625l-1.875 0q-1.71875 -1.984375 -2.625 -4.640625q-0.890625 -2.671875 -0.890625 -5.734375zm7.9140625 5.328125q0 -0.78125 0.359375 -1.1875q0.359375 -0.40625 1.03125 -0.40625q0.671875 0 1.046875 0.40625q0.390625 0.40625 0.390625 1.1875q0 0.765625 -0.390625 1.1875q-0.390625 0.40625 -1.046875 0.40625q-0.609375 0 -1.0 -0.375q-0.390625 -0.375 -0.390625 -1.21875zm14.949219 -2.25q0 1.78125 -1.34375 2.765625q-1.328125 0.96875 -3.734375 0.96875q-2.5625 0 -3.984375 -0.8125l0 -1.796875q0.921875 0.46875 1.984375 0.734375q1.0625 0.265625 2.046875 0.265625q1.515625 0 2.328125 -0.484375q0.828125 -0.484375 0.828125 -1.484375q0 -0.75 -0.65625 -1.28125q-0.640625 -0.53125 -2.53125 -1.265625q-1.78125 -0.65625 -2.546875 -1.15625q-0.75 -0.5 -1.125 -1.125q-0.359375 -0.640625 -0.359375 -1.515625q0 -1.578125 1.265625 -2.484375q1.28125 -0.90625 3.515625 -0.90625q2.0625 0 4.046875 0.84375l-0.6875 1.578125q-1.9375 -0.796875 -3.5 -0.796875q-1.390625 0 -2.09375 0.4375q-0.703125 0.4375 -0.703125 1.1875q0 0.515625 0.265625 0.890625q0.265625 0.359375 0.84375 0.6875q0.59375 0.328125 2.25 0.953125q2.296875 0.828125 3.09375 1.671875q0.796875 0.84375 0.796875 2.125zm5.9804688 3.5l-4.875 -12.84375l2.09375 0l2.765625 7.609375q0.9375 2.671875 1.0937347 3.46875l0.09375 0q0.125 -0.609375 0.8125 -2.5625q0.6875 -1.953125 3.078125 -8.515625l2.09375 0l-4.875 12.84375l-2.2812347 0zm19.726547 -12.84375l0 1.234375l-2.375 0.28125q0.328125 0.40625 0.578125 1.078125q0.265625 0.65625 0.265625 1.484375q0 1.890625 -1.296875 3.015625q-1.28125 1.125 -3.53125 1.125q-0.578125 0 -1.078125 -0.09375q-1.25 0.65625 -1.25 1.640625q0 0.53125 0.4375 0.78125q0.4375 0.25 1.484375 0.25l2.28125 0q2.078125 0 3.1875 0.890625q1.125 0.875 1.125 2.546875q0 2.140625 -1.71875 3.25q-1.703125 1.125 -4.984375 1.125q-2.515625 0 -3.890625 -0.9375q-1.359375 -0.9375 -1.359375 -2.640625q0 -1.171875 0.75 -2.03125q0.75 -0.859375 2.109375 -1.171875q-0.484375 -0.21875 -0.828125 -0.6875q-0.328125 -0.46875 -0.328125 -1.09375q0 -0.703125 0.375 -1.21875q0.375 -0.53125 1.1875 -1.03125q-1.0 -0.40625 -1.625 -1.390625q-0.625 -0.984375 -0.625 -2.25q0 -2.109375 1.265625 -3.25q1.265625 -1.140625 3.578125 -1.140625q1.015625 0 1.828125 0.234375l4.4375 0zm-10.25 15.0q0 1.046875 0.875 1.578125q0.890625 0.546875 2.53125 0.546875q2.453125 0 3.625 -0.734375q1.171875 -0.734375 1.171875 -1.984375q0 -1.046875 -0.640625 -1.453125q-0.640625 -0.40625 -2.421875 -0.40625l-2.328125 0q-1.328125 0 -2.078125 0.625q-0.734375 0.640625 -0.734375 1.828125zm1.0625 -10.890625q0 1.34375 0.75 2.046875q0.765625 0.6875 2.125 0.6875q2.859375 0 2.859375 -2.765625q0 -2.890625 -2.890625 -2.890625q-1.375 0 -2.109375 0.734375q-0.734375 0.734375 -0.734375 2.1875zm13.8671875 5.9375l0.171875 0.28125q-0.3125 1.171875 -0.890625 2.71875q-0.5625 1.5625 -1.1875 2.890625l-1.46875 0q0.328125 -1.21875 0.703125 -3.015625q0.375 -1.796875 0.53125 -2.875l2.140625 0zm15.2109375 3.03125q-2.796875 0 -4.328125 -1.71875q-1.53125 -1.71875 -1.53125 -4.859375q0 -3.21875 1.546875 -4.96875q1.5625 -1.765625 4.4375 -1.765625q0.921875 0 1.84375 0.203125q0.9375 0.1875 1.453125 0.46875l-0.59375 1.640625q-0.640625 -0.25 -1.40625 -0.421875q-0.765625 -0.171875 -1.34375 -0.171875q-3.921875 0 -3.921875 5.0q0 2.359375 0.953125 3.625q0.96875 1.265625 2.84375 1.265625q1.59375 0 3.28125 -0.6875l0 1.71875q-1.28125 0.671875 -3.234375 0.671875zm8.113281 -13.078125l0 8.328125q0 1.578125 0.71875 2.359375q0.71875 0.765625 2.234375 0.765625q2.015625 0 2.9375 -1.09375q0.9375 -1.109375 0.9375 -3.609375l0 -6.75l1.953125 0l0 12.84375l-1.609375 0l-0.28125 -1.71875l-0.109375 0q-0.59375 0.9375 -1.65625 1.453125q-1.0625 0.5 -2.421875 0.5q-2.34375 0 -3.515625 -1.109375q-1.15625 -1.125 -1.15625 -3.5625l0 -8.40625l1.96875 0zm18.761719 -0.234375q0.859375 0 1.53125 0.140625l-0.265625 1.796875q-0.796875 -0.171875 -1.40625 -0.171875q-1.5625 0 -2.671875 1.265625q-1.09375 1.265625 -1.09375 3.15625l0 6.890625l-1.953125 0l0 -12.84375l1.609375 0l0.21875 2.375l0.09375 0q0.71875 -1.25 1.71875 -1.921875q1.015625 -0.6875 2.21875 -0.6875zm9.796875 0q0.859375 0 1.53125 0.140625l-0.265625 1.796875q-0.796875 -0.171875 -1.40625 -0.171875q-1.5625 0 -2.671875 1.265625q-1.09375 1.265625 -1.09375 3.15625l0 6.890625l-1.953125 0l0 -12.84375l1.609375 0l0.21875 2.375l0.09375 0q0.71875 -1.25 1.71875 -1.921875q1.015625 -0.6875 2.21875 -0.6875zm9.359375 13.3125q-2.84375 0 -4.5 -1.734375q-1.640625 -1.734375 -1.640625 -4.8125q0 -3.109375 1.53125 -4.9375q1.53125 -1.828125 4.109375 -1.828125q2.421875 0 3.828125 1.59375q1.40625 1.578125 1.40625 4.1875l0 1.21875l-8.859375 0q0.0625 2.265625 1.140625 3.4375q1.09375 1.171875 3.0625 1.171875q2.078125 0 4.09375 -0.859375l0 1.734375q-1.03125 0.4375 -1.953125 0.625q-0.90625 0.203125 -2.21875 0.203125zm-0.515625 -11.6875q-1.546875 0 -2.46875 1.015625q-0.921875 1.0 -1.09375 2.78125l6.71875 0q0 -1.84375 -0.828125 -2.8125q-0.8125 -0.984375 -2.328125 -0.984375zm17.355469 11.453125l0 -8.3125q0 -1.5625 -0.71875 -2.328125q-0.71875 -0.78125 -2.234375 -0.78125q-2.015625 0 -2.953125 1.09375q-0.9375 1.078125 -0.9375 3.59375l0 6.734375l-1.953125 0l0 -12.84375l1.578125 0l0.328125 1.75l0.09375 0q0.59375 -0.9375 1.671875 -1.453125q1.078125 -0.53125 2.40625 -0.53125q2.3125 0 3.484375 1.125q1.171875 1.109375 1.171875 3.578125l0 8.375l-1.9375 0zm10.089844 -1.375q0.515625 0 0.984375 -0.078125q0.484375 -0.078125 0.765625 -0.15625l0 1.484375q-0.3125 0.15625 -0.9375 0.25q-0.609375 0.109375 -1.09375 0.109375q-3.734375 0 -3.734375 -3.921875l0 -7.640625l-1.84375 0l0 -0.9375l1.84375 -0.8125l0.828125 -2.75l1.125 0l0 2.984375l3.71875 0l0 1.515625l-3.71875 0l0 7.546875q0 1.171875 0.546875 1.796875q0.546875 0.609375 1.515625 0.609375zm18.832031 -2.125q0 1.78125 -1.34375 2.765625q-1.328125 0.96875 -3.734375 0.96875q-2.5625 0 -3.984375 -0.8125l0 -1.796875q0.921875 0.46875 1.984375 0.734375q1.0625 0.265625 2.046875 0.265625q1.515625 0 2.328125 -0.484375q0.828125 -0.484375 0.828125 -1.484375q0 -0.75 -0.65625 -1.28125q-0.640625 -0.53125 -2.53125 -1.265625q-1.78125 -0.65625 -2.546875 -1.15625q-0.75 -0.5 -1.125 -1.125q-0.359375 -0.640625 -0.359375 -1.515625q0 -1.578125 1.265625 -2.484375q1.28125 -0.90625 3.515625 -0.90625q2.0625 0 4.046875 0.84375l-0.6875 1.578125q-1.9375 -0.796875 -3.5 -0.796875q-1.390625 0 -2.09375 0.4375q-0.703125 0.4375 -0.703125 1.1875q0 0.515625 0.265625 0.890625q0.265625 0.359375 0.84375 0.6875q0.59375 0.328125 2.25 0.953125q2.296875 0.828125 3.09375 1.671875q0.796875 0.84375 0.796875 2.125zm5.1210938 3.5l-1.953125 0l0 -18.234375l1.953125 0l0 18.234375zm6.0703125 0l-1.953125 0l0 -12.84375l1.953125 0l0 12.84375zm-2.109375 -16.328125q0 -0.671875 0.328125 -0.96875q0.328125 -0.3125 0.8125 -0.3125q0.46875 0 0.8125 0.3125q0.34375 0.3125 0.34375 0.96875q0 0.65625 -0.34375 0.984375q-0.34375 0.3125 -0.8125 0.3125q-0.484375 0 -0.8125 -0.3125q-0.328125 -0.328125 -0.328125 -0.984375zm14.9765625 14.609375l-0.109375 0q-1.34375 1.953125 -4.03125 1.953125q-2.515625 0 -3.921875 -1.71875q-1.40625 -1.734375 -1.40625 -4.90625q0 -3.171875 1.40625 -4.921875q1.40625 -1.765625 3.921875 -1.765625q2.609375 0 4.0 1.890625l0.15625 0l-0.078125 -0.921875l-0.046875 -0.90625l0 -5.21875l1.9375 0l0 18.234375l-1.578125 0l-0.25 -1.71875zm-3.890625 0.328125q1.984375 0 2.875 -1.078125q0.90625 -1.09375 0.90625 -3.515625l0 -0.40625q0 -2.734375 -0.90625 -3.890625q-0.90625 -1.171875 -2.90625 -1.171875q-1.703125 0 -2.625 1.328125q-0.90625 1.328125 -0.90625 3.765625q0 2.453125 0.90625 3.71875q0.90625 1.25 2.65625 1.25zm15.269531 1.625q-2.84375 0 -4.5 -1.734375q-1.640625 -1.734375 -1.640625 -4.8125q0 -3.109375 1.53125 -4.9375q1.53125 -1.828125 4.109375 -1.828125q2.421875 0 3.828125 1.59375q1.40625 1.578125 1.40625 4.1875l0 1.21875l-8.859375 0q0.0625 2.265625 1.140625 3.4375q1.09375 1.171875 3.0625 1.171875q2.078125 0 4.09375 -0.859375l0 1.734375q-1.03125 0.4375 -1.953125 0.625q-0.90625 0.203125 -2.21875 0.203125zm-0.515625 -11.6875q-1.546875 0 -2.46875 1.015625q-0.921875 1.0 -1.09375 2.78125l6.71875 0q0 -1.84375 -0.828125 -2.8125q-0.8125 -0.984375 -2.328125 -0.984375zm12.636719 4.875q0 3.078125 -0.90625 5.75q-0.90625 2.65625 -2.625 4.625l-1.875 0q1.640625 -2.203125 2.5 -4.890625q0.875 -2.6875 0.875 -5.5q0 -2.859375 -0.859375 -5.5625q-0.84375 -2.71875 -2.53125 -4.984375l1.890625 0q1.734375 2.0625 2.625 4.78125q0.90625 2.703125 0.90625 5.78125z" fill-rule="nonzero"/><path fill="#695d46" d="m436.658 196.7375q0 -0.78125 0.359375 -1.1875q0.359375 -0.40625 1.03125 -0.40625q0.671875 0 1.046875 0.40625q0.390625 0.40625 0.390625 1.1875q0 0.765625 -0.390625 1.1875q-0.390625 0.40625 -1.046875 0.40625q-0.609375 0 -1.0 -0.375q-0.390625 -0.375 -0.390625 -1.21875z" fill-rule="nonzero"/></g></svg>