<svg version="1.1" viewBox="0.0 0.0 7937.007874015748 11225.1968503937" fill="none" stroke="none" stroke-linecap="square" stroke-miterlimit="10" xmlns:xlink="http://www.w3.org/1999/xlink" xmlns="http://www.w3.org/2000/svg"><clipPath id="p.0"><path d="m0 0l7937.008 0l0 11225.197l-7937.008 0l0 -11225.197z" clip-rule="nonzero"/></clipPath><g clip-path="url(#p.0)"><path fill="#000000" fill-opacity="0.0" d="m0 0l7937.008 0l0 11225.197l-7937.008 0z" fill-rule="evenodd"/><path fill="#efefef" d="m13.191601 -13.191601l7923.811 0l0 11225.196l-7923.811 0z" fill-rule="evenodd"/><path fill="#ea9999" d="m2810.8306 3675.8435l578.8425 0l0 -3209.7166l1157.6848 0l0 3209.7166l578.8428 0l-1157.685 1157.6848z" fill-rule="evenodd"/><path stroke="#85200c" stroke-width="8.0" stroke-linejoin="round" stroke-linecap="butt" d="m2810.8306 3675.8435l578.8425 0l0 -3209.7166l1157.6848 0l0 3209.7166l578.8428 0l-1157.685 1157.6848z" fill-rule="evenodd"/><path fill="#000000" fill-opacity="0.0" d="m464.22046 5613.565l7008.5674 0l0 1388.8506l-7008.5674 0z" fill-rule="evenodd"/><path fill="#000000" d="m871.8152 6168.165l0 -305.40625l135.40625 0q40.828125 0 62.078125 8.234375q21.25 8.21875 33.953125 29.0625q12.71875 20.828125 12.71875 46.03125q0 32.5 -21.046875 54.796875q-21.03125 22.28125 -65.0 28.328125q16.046875 7.703125 24.375 15.203125q17.71875 16.25 33.546875 40.625l53.125 83.125l-50.828125 0l-40.421875 -63.546875q-17.703125 -27.5 -29.171875 -42.078125q-11.453125 -14.578125 -20.515625 -20.40625q-9.0625 -5.84375 -18.4375 -8.125q-6.875 -1.46875 -22.5 -1.46875l-46.875 0l0 135.625l-40.40625 0zm40.40625 -170.625l86.875 0q27.703125 0 43.328125 -5.71875q15.625 -5.734375 23.75 -18.328125q8.125 -12.609375 8.125 -27.40625q0 -21.671875 -15.734375 -35.625q-15.71875 -13.953125 -49.671875 -13.953125l-96.671875 0l0 101.03125zm413.74255 99.375l38.75 4.796875q-9.171875 33.953125 -33.96875 52.703125q-24.78125 18.75 -63.328125 18.75q-48.53125 0 -76.96875 -29.890625q-28.4375 -29.90625 -28.4375 -83.859375q0 -55.828125 28.75 -86.65625q28.75 -30.84375 74.578125 -30.84375q44.375 0 72.5 30.21875q28.125 30.203125 28.125 85.0q0 3.328125 -0.203125 9.984375l-165.0 0q2.078125 36.46875 20.625 55.84375q18.546875 19.375 46.25 19.375q20.625 0 35.203125 -10.828125q14.578125 -10.84375 23.125 -34.59375zm-123.125 -60.625l123.546875 0q-2.5 -27.90625 -14.171875 -41.875q-17.921875 -21.65625 -46.453125 -21.65625q-25.828125 0 -43.4375 17.296875q-17.609375 17.28125 -19.484375 46.234375zm208.95776 216.67188l0 -306.04688l34.171875 0l0 28.75q12.078125 -16.875 27.28125 -25.3125q15.218628 -8.4375 36.874878 -8.4375q28.328125 0 50.0 14.59375q21.671875 14.578125 32.703125 41.140625q11.046875 26.5625 11.046875 58.234375q0 33.953125 -12.1875 61.140625q-12.1875 27.1875 -35.421875 41.671875q-23.21875 14.46875 -48.84375 14.46875q-18.75 0 -33.656128 -7.90625q-14.890625 -7.921875 -24.46875 -20.015625l0 107.71875l-37.5 0zm33.953125 -194.17188q0 42.703125 17.296875 63.125q17.296875 20.421875 41.874878 20.421875q25.0 0 42.8125 -21.140625q17.8125 -21.15625 17.8125 -65.53125q0 -42.28125 -17.40625 -63.328125q-17.390625 -21.046875 -41.5625 -21.046875q-23.953003 0 -42.390503 22.40625q-18.4375 22.390625 -18.4375 65.09375zm202.50452 109.375l0 -305.40625l37.5 0l0 305.40625l-37.5 0zm239.99255 -27.296875q-20.84375 17.71875 -40.109375 25.015625q-19.265625 7.28125 -41.34375 7.28125q-36.46875 0 -56.046875 -17.8125q-19.578125 -17.8125 -19.578125 -45.515625q0 -16.25 7.390625 -29.6875q7.390625 -13.4375 19.375 -21.5625q11.984375 -8.125 26.984375 -12.296875q11.03125 -2.90625 33.328125 -5.625q45.40625 -5.40625 66.875 -12.90625q0.203125 -7.71875 0.203125 -9.796875q0 -22.921875 -10.625 -32.296875q-14.375 -12.703125 -42.703125 -12.703125q-26.453125 0 -39.0625 9.28125q-12.609375 9.265625 -18.640625 32.796875l-36.671875 -5.0q5.0 -23.53125 16.453125 -38.015625q11.46875 -14.484375 33.125 -22.296875q21.671875 -7.8125 50.203125 -7.8125q28.34375 0 46.046875 6.671875q17.703125 6.671875 26.03125 16.78125q8.34375 10.09375 11.671875 25.515625q1.875 9.578125 1.875 34.578125l0 50.0q0 52.28125 2.390625 66.140625q2.40625 13.859375 9.484375 26.5625l-39.15625 0q-5.84375 -11.671875 -7.5 -27.296875zm-3.125 -83.734375q-20.421875 8.328125 -61.25 14.15625q-23.125 3.328125 -32.71875 7.5q-9.578125 4.171875 -14.78125 12.1875q-5.203125 8.015625 -5.203125 17.8125q0 15.0 11.34375 25.0q11.359375 10.0 33.234375 10.0q21.65625 0 38.53125 -9.46875q16.875 -9.484375 24.796875 -25.953125q6.046875 -12.703125 6.046875 -37.5l0 -13.734375zm240.41101 29.984375l36.875 4.796875q-6.046875 38.125 -30.953125 59.6875q-24.890625 21.5625 -61.140625 21.5625q-45.406372 0 -73.01575 -29.6875q-27.59375 -29.6875 -27.59375 -85.09375q0 -35.84375 11.875 -62.71875q11.875 -26.875 36.140625 -40.3125q24.265625 -13.4375 52.812622 -13.4375q36.03125 0 58.953125 18.234375q22.921875 18.234375 29.375 51.765625l-36.453125 5.625q-5.21875 -22.28125 -18.453125 -33.53125q-13.21875 -11.25 -31.96875 -11.25q-28.328247 0 -46.046997 20.3125q-17.703125 20.3125 -17.703125 64.265625q0 44.578125 17.078125 64.796875q17.09375 20.203125 44.593872 20.203125q22.078125 0 36.859375 -13.546875q14.796875 -13.546875 18.765625 -41.671875zm220.40625 9.796875l38.75 4.796875q-9.171875 33.953125 -33.96875 52.703125q-24.78125 18.75 -63.328125 18.75q-48.53125 0 -76.96875 -29.890625q-28.4375 -29.90625 -28.4375 -83.859375q0 -55.828125 28.75 -86.65625q28.75 -30.84375 74.578125 -30.84375q44.375 0 72.5 30.21875q28.125 30.203125 28.125 85.0q0 3.328125 -0.203125 9.984375l-165.0 0q2.078125 36.46875 20.625 55.84375q18.546875 19.375 46.25 19.375q20.625 0 35.203125 -10.828125q14.578125 -10.84375 23.125 -34.59375zm-123.125 -60.625l123.546875 0q-2.5 -27.90625 -14.171875 -41.875q-17.921875 -21.65625 -46.453125 -21.65625q-25.828125 0 -43.4375 17.296875q-17.609375 17.28125 -19.484375 46.234375zm409.37158 98.328125l5.40625 33.125q-15.828125 3.34375 -28.328125 3.34375q-20.40625 0 -31.65625 -6.453125q-11.25 -6.46875 -15.84375 -16.984375q-4.578125 -10.53125 -4.578125 -44.28125l0 -127.28125l-27.5 0l0 -29.171875l27.5 0l0 -54.78125l37.296875 -22.5l0 77.28125l37.703125 0l0 29.171875l-37.703125 0l0 129.375q0 16.03125 1.96875 20.625q1.984375 4.578125 6.453125 7.296875q4.484375 2.703125 12.828125 2.703125q6.25 0 16.453125 -1.46875zm36.663574 33.546875l0 -305.40625l37.5 0l0 109.578125q26.25 -30.421875 66.25 -30.421875q24.578125 0 42.703125 9.6875q18.125 9.6875 25.9375 26.78125q7.8125 17.078125 7.8125 49.578125l0 140.20312l-37.5 0l0 -140.20312q0 -28.125 -12.1875 -40.9375q-12.1875 -12.8125 -34.484375 -12.8125q-16.65625 0 -31.34375 8.65625q-14.6875 8.640625 -20.9375 23.4375q-6.25 14.78125 -6.25 40.828125l0 121.03125l-37.5 0zm237.48926 -262.28125l0 -43.125l37.5 0l0 43.125l-37.5 0zm0 262.28125l0 -221.25l37.5 0l0 221.25l-37.5 0zm79.58618 -66.046875l37.078125 -5.828125q3.125 22.296875 17.390625 34.171875q14.28125 11.875 39.90625 11.875q25.828125 0 38.328125 -10.515625q12.5 -10.53125 12.5 -24.703125q0 -12.703125 -11.046875 -20.0q-7.703125 -5.0 -38.328125 -12.703125q-41.25 -10.421875 -57.1875 -18.015625q-15.9375 -7.609375 -24.171875 -21.046875q-8.21875 -13.4375 -8.21875 -29.6875q0 -14.78125 6.765625 -27.390625q6.78125 -12.609375 18.4375 -20.9375q8.75 -6.453125 23.859375 -10.9375q15.109375 -4.484375 32.390625 -4.484375q26.046875 0 45.734375 7.5q19.6875 7.5 29.0625 20.3125q9.375 12.8125 12.90625 34.28125l-36.65625 5.0q-2.5 -17.09375 -14.484375 -26.671875q-11.984375 -9.578125 -33.84375 -9.578125q-25.84375 0 -36.890625 8.546875q-11.03125 8.53125 -11.03125 19.984375q0 7.296875 4.578125 13.125q4.59375 6.046875 14.375 10.0q5.625 2.09375 33.125 9.59375q39.796875 10.625 55.515625 17.390625q15.734375 6.765625 24.6875 19.6875q8.96875 12.90625 8.96875 32.078125q0 18.75 -10.9375 35.3125q-10.9375 16.5625 -31.5625 25.625q-20.625 9.0625 -46.671875 9.0625q-43.125 0 -65.734375 -17.90625q-22.59375 -17.921875 -28.84375 -53.140625zm355.82007 66.046875l0 -192.07812l-33.125 0l0 -29.171875l33.125 0l0 -23.53125q0 -22.296875 3.96875 -33.125q5.40625 -14.59375 19.046875 -23.65625q13.65625 -9.0625 38.234375 -9.0625q15.828125 0 35.0 3.75l-5.625 32.71875q-11.671875 -2.09375 -22.078125 -2.09375q-17.078125 0 -24.171875 7.296875q-7.078125 7.296875 -7.078125 27.296875l0 20.40625l43.125 0l0 29.171875l-43.125 0l0 192.07812l-37.296875 0zm109.78882 -262.28125l0 -43.125l37.5 0l0 43.125l-37.5 0zm0 262.28125l0 -221.25l37.5 0l0 221.25l-37.5 0zm93.75806 0l0 -305.40625l37.5 0l0 305.40625l-37.5 0zm247.07056 -71.25l38.75 4.796875q-9.171875 33.953125 -33.96875 52.703125q-24.78125 18.75 -63.328125 18.75q-48.53125 0 -76.96875 -29.890625q-28.4375 -29.90625 -28.4375 -83.859375q0 -55.828125 28.75 -86.65625q28.75 -30.84375 74.578125 -30.84375q44.375 0 72.5 30.21875q28.125 30.203125 28.125 85.0q0 3.328125 -0.203125 9.984375l-165.0 0q2.078125 36.46875 20.625 55.84375q18.546875 19.375 46.25 19.375q20.625 0 35.203125 -10.828125q14.578125 -10.84375 23.125 -34.59375zm-123.125 -60.625l123.546875 0q-2.5 -27.90625 -14.171875 -41.875q-17.921875 -21.65625 -46.453125 -21.65625q-25.828125 0 -43.4375 17.296875q-17.609375 17.28125 -19.484375 46.234375zm368.3247 131.875l-67.703125 -221.25l38.75 0l35.203125 127.703125l13.125 47.5q0.84375 -3.53125 11.46875 -45.625l35.203125 -129.57812l38.53125 0l33.125 128.32812l11.046875 42.296875l12.703125 -42.703125l37.921875 -127.921875l36.453125 0l-69.15625 221.25l-38.96875 0l-35.203125 -132.5l-8.546875 -37.703125l-44.78125 170.20312l-39.171875 0zm267.49268 -262.28125l0 -43.125l37.5 0l0 43.125l-37.5 0zm0 262.28125l0 -221.25l37.5 0l0 221.25l-37.5 0zm176.46094 -33.546875l5.40625 33.125q-15.828125 3.34375 -28.328125 3.34375q-20.40625 0 -31.65625 -6.453125q-11.25 -6.46875 -15.84375 -16.984375q-4.578125 -10.53125 -4.578125 -44.28125l0 -127.28125l-27.5 0l0 -29.171875l27.5 0l0 -54.78125l37.296875 -22.5l0 77.28125l37.703125 0l0 29.171875l-37.703125 0l0 129.375q0 16.03125 1.96875 20.625q1.984375 4.578125 6.453125 7.296875q4.484375 2.703125 12.828125 2.703125q6.25 0 16.453125 -1.46875zm36.664062 33.546875l0 -305.40625l37.5 0l0 109.578125q26.25 -30.421875 66.25 -30.421875q24.578125 0 42.703125 9.6875q18.125 9.6875 25.9375 26.78125q7.8125 17.078125 7.8125 49.578125l0 140.20312l-37.5 0l0 -140.20312q0 -28.125 -12.1875 -40.9375q-12.1875 -12.8125 -34.484375 -12.8125q-16.65625 0 -31.34375 8.65625q-14.6875 8.640625 -20.9375 23.4375q-6.25 14.78125 -6.25 40.828125l0 121.03125l-37.5 0zm354.15283 85.203125l-4.15625 -35.203125q12.28125 3.328125 21.453125 3.328125q12.5 0 20.0 -4.171875q7.5 -4.15625 12.296875 -11.65625q3.53125 -5.625 11.453125 -27.921875q1.046875 -3.125 3.328125 -9.15625l-83.953125 -221.67188l40.421875 0l46.03125 128.125q8.96875 24.375 16.046875 51.25q6.453125 -25.828125 15.40625 -50.421875l47.296875 -128.95312l37.5 0l-84.171875 225.0q-13.53125 36.453125 -21.03125 50.203125q-10.0 18.546875 -22.921875 27.1875q-12.90625 8.65625 -30.828125 8.65625q-10.828125 0 -24.171875 -4.59375zm201.04688 -195.82812q0 -61.453125 34.15625 -91.03125q28.546875 -24.59375 69.578125 -24.59375q45.625 0 74.578125 29.90625q28.96875 29.890625 28.96875 82.59375q0 42.703125 -12.8125 67.1875q-12.8125 24.484375 -37.296875 38.03125q-24.46875 13.53125 -53.4375 13.53125q-46.453125 0 -75.09375 -29.78125q-28.640625 -29.796875 -28.640625 -85.84375zm38.53125 0q0 42.5 18.546875 63.65625q18.546875 21.140625 46.65625 21.140625q27.921875 0 46.453125 -21.25q18.546875 -21.25 18.546875 -64.796875q0 -41.03125 -18.640625 -62.171875q-18.640625 -21.15625 -46.359375 -21.15625q-28.109375 0 -46.65625 21.046875q-18.546875 21.03125 -18.546875 63.53125zm357.70752 110.625l0 -32.5q-25.84375 37.5 -70.203125 37.5q-19.59375 0 -36.578125 -7.5q-16.96875 -7.5 -25.203125 -18.84375q-8.21875 -11.359375 -11.5625 -27.828125q-2.28125 -11.03125 -2.28125 -35.0l0 -137.07812l37.5 0l0 122.703125q0 29.375 2.28125 39.59375q3.546875 14.78125 15.0 23.21875q11.46875 8.4375 28.328125 8.4375q16.875 0 31.671875 -8.640625q14.796875 -8.640625 20.9375 -23.53125q6.140625 -14.90625 6.140625 -43.234375l0 -118.546875l37.5 0l0 221.25l-33.53125 0zm91.86377 0l0 -221.25l33.75 0l0 33.546875q12.921875 -23.546875 23.859375 -31.046875q10.9375 -7.5 24.0625 -7.5q18.953125 0 38.53125 12.09375l-12.90625 34.78125q-13.75 -8.125 -27.5 -8.125q-12.296875 0 -22.09375 7.40625q-9.78125 7.390625 -13.953125 20.515625q-6.25 20.0 -6.25 43.75l0 115.828125l-37.5 0zm261.04053 84.796875l0 -306.04688l34.171875 0l0 28.75q12.078125 -16.875 27.28125 -25.3125q15.21875 -8.4375 36.875 -8.4375q28.328125 0 50.0 14.59375q21.671875 14.578125 32.703125 41.140625q11.046875 26.5625 11.046875 58.234375q0 33.953125 -12.1875 61.140625q-12.1875 27.1875 -35.421875 41.671875q-23.21875 14.46875 -48.84375 14.46875q-18.75 0 -33.65625 -7.90625q-14.890625 -7.921875 -24.46875 -20.015625l0 107.71875l-37.5 0zm33.953125 -194.17188q0 42.703125 17.296875 63.125q17.296875 20.421875 41.875 20.421875q25.0 0 42.8125 -21.140625q17.8125 -21.15625 17.8125 -65.53125q0 -42.28125 -17.40625 -63.328125q-17.390625 -21.046875 -41.5625 -21.046875q-23.953125 0 -42.390625 22.40625q-18.4375 22.390625 -18.4375 65.09375zm189.3794 -1.25q0 -61.453125 34.15625 -91.03125q28.546875 -24.59375 69.578125 -24.59375q45.625 0 74.578125 29.90625q28.96875 29.890625 28.96875 82.59375q0 42.703125 -12.8125 67.1875q-12.8125 24.484375 -37.296875 38.03125q-24.46875 13.53125 -53.4375 13.53125q-46.453125 0 -75.09375 -29.78125q-28.640625 -29.796875 -28.640625 -85.84375zm38.53125 0q0 42.5 18.546875 63.65625q18.546875 21.140625 46.65625 21.140625q27.921875 0 46.453125 -21.25q18.546875 -21.25 18.546875 -64.796875q0 -41.03125 -18.640625 -62.171875q-18.640625 -21.15625 -46.359375 -21.15625q-28.109375 0 -46.65625 21.046875q-18.546875 21.03125 -18.546875 63.53125zm197.70752 44.578125l37.078125 -5.828125q3.125 22.296875 17.390625 34.171875q14.28125 11.875 39.90625 11.875q25.828125 0 38.328125 -10.515625q12.5 -10.53125 12.5 -24.703125q0 -12.703125 -11.046875 -20.0q-7.703125 -5.0 -38.328125 -12.703125q-41.25 -10.421875 -57.1875 -18.015625q-15.9375 -7.609375 -24.171875 -21.046875q-8.21875 -13.4375 -8.21875 -29.6875q0 -14.78125 6.765625 -27.390625q6.78125 -12.609375 18.4375 -20.9375q8.75 -6.453125 23.859375 -10.9375q15.109375 -4.484375 32.390625 -4.484375q26.046875 0 45.734375 7.5q19.6875 7.5 29.0625 20.3125q9.375 12.8125 12.90625 34.28125l-36.65625 5.0q-2.5 -17.09375 -14.484375 -26.671875q-11.984375 -9.578125 -33.84375 -9.578125q-25.84375 0 -36.890625 8.546875q-11.03125 8.53125 -11.03125 19.984375q0 7.296875 4.578125 13.125q4.59375 6.046875 14.375 10.0q5.625 2.09375 33.125 9.59375q39.796875 10.625 55.515625 17.390625q15.734375 6.765625 24.6875 19.6875q8.96875 12.90625 8.96875 32.078125q0 18.75 -10.9375 35.3125q-10.9375 16.5625 -31.5625 25.625q-20.625 9.0625 -46.671875 9.0625q-43.125 0 -65.734375 -17.90625q-22.59375 -17.921875 -28.84375 -53.140625zm310.20312 32.5l5.40625 33.125q-15.828125 3.34375 -28.328125 3.34375q-20.40625 0 -31.65625 -6.453125q-11.25 -6.46875 -15.84375 -16.984375q-4.578125 -10.53125 -4.578125 -44.28125l0 -127.28125l-27.5 0l0 -29.171875l27.5 0l0 -54.78125l37.296875 -22.5l0 77.28125l37.703125 0l0 29.171875l-37.703125 0l0 129.375q0 16.03125 1.96875 20.625q1.984375 4.578125 6.453125 7.296875q4.484375 2.703125 12.828125 2.703125q6.25 0 16.453125 -1.46875zm188.1167 -37.703125l38.75 4.796875q-9.171875 33.953125 -33.96875 52.703125q-24.78125 18.75 -63.328125 18.75q-48.53125 0 -76.96875 -29.890625q-28.4375 -29.90625 -28.4375 -83.859375q0 -55.828125 28.75 -86.65625q28.75 -30.84375 74.578125 -30.84375q44.375 0 72.5 30.21875q28.125 30.203125 28.125 85.0q0 3.328125 -0.203125 9.984375l-165.0 0q2.078125 36.46875 20.625 55.84375q18.546875 19.375 46.25 19.375q20.625 0 35.203125 -10.828125q14.578125 -10.84375 23.125 -34.59375zm-123.125 -60.625l123.546875 0q-2.5 -27.90625 -14.171875 -41.875q-17.921875 -21.65625 -46.453125 -21.65625q-25.828125 0 -43.4375 17.296875q-17.609375 17.28125 -19.484375 46.234375zm208.53564 131.875l0 -221.25l33.75 0l0 33.546875q12.921875 -23.546875 23.859375 -31.046875q10.9375 -7.5 24.0625 -7.5q18.953125 0 38.53125 12.09375l-12.90625 34.78125q-13.75 -8.125 -27.5 -8.125q-12.296875 0 -22.09375 7.40625q-9.78125 7.390625 -13.953125 20.515625q-6.25 20.0 -6.25 43.75l0 115.828125l-37.5 0zm153.12695 0l0 -42.703125l42.703125 0l0 42.703125l-42.703125 0z" fill-rule="nonzero"/><path fill="#000000" d="m1613.2517 6680.165l0 -269.375l-100.625 0l0 -36.03125l242.07812 0l0 36.03125l-101.046875 0l0 269.375l-40.40625 0zm177.69678 0l0 -221.25l33.75 0l0 33.546875q12.921875 -23.546875 23.859375 -31.046875q10.9375 -7.5 24.0625 -7.5q18.953125 0 38.53125 12.09375l-12.90625 34.78125q-13.75 -8.125 -27.5 -8.125q-12.296875 0 -22.09375 7.40625q-9.78125 7.390625 -13.953125 20.515625q-6.25 20.0 -6.25 43.75l0 115.828125l-37.5 0zm140.82983 85.203125l-4.15625 -35.203125q12.28125 3.328125 21.453125 3.328125q12.5 0 20.0 -4.171875q7.5 -4.15625 12.296875 -11.65625q3.53125 -5.625 11.453125 -27.921875q1.046875 -3.125 3.328125 -9.15625l-83.953125 -221.67188l40.421875 0l46.03125 128.125q8.96875 24.375 16.046875 51.25q6.453125 -25.828125 15.40625 -50.421875l47.296875 -128.95312l37.5 0l-84.171875 225.0q-13.53125 36.453125 -21.03125 50.203125q-10.0 18.546875 -22.921875 27.1875q-12.90625 8.65625 -30.828125 8.65625q-10.828125 0 -24.171875 -4.59375zm415.41382 -118.75l5.40625 33.125q-15.828125 3.34375 -28.328125 3.34375q-20.40625 0 -31.65625 -6.453125q-11.25 -6.46875 -15.84375 -16.984375q-4.578125 -10.53125 -4.578125 -44.28125l0 -127.28125l-27.5 0l0 -29.171875l27.5 0l0 -54.78125l37.296875 -22.5l0 77.28125l37.703125 0l0 29.171875l-37.703125 0l0 129.375q0 16.03125 1.96875 20.625q1.984375 4.578125 6.453125 7.296875q4.484375 2.703125 12.828125 2.703125q6.25 0 16.453125 -1.46875zm22.710693 -77.078125q0 -61.453125 34.15625 -91.03125q28.546875 -24.59375 69.578125 -24.59375q45.624756 0 74.57788 29.90625q28.96875 29.890625 28.96875 82.59375q0 42.703125 -12.8125 67.1875q-12.8125 24.484375 -37.296875 38.03125q-24.468506 13.53125 -53.437256 13.53125q-46.453125 0 -75.09375 -29.78125q-28.640625 -29.796875 -28.640625 -85.84375zm38.53125 0q0 42.5 18.546875 63.65625q18.546875 21.140625 46.65625 21.140625q27.921875 0 46.45288 -21.25q18.546875 -21.25 18.546875 -64.796875q0 -41.03125 -18.640625 -62.171875q-18.64038 -21.15625 -46.35913 -21.15625q-28.109375 0 -46.65625 21.046875q-18.546875 21.03125 -18.546875 63.53125zm476.24634 110.625l0 -32.5q-25.84375 37.5 -70.203125 37.5q-19.59375 0 -36.578125 -7.5q-16.96875 -7.5 -25.203125 -18.84375q-8.21875 -11.359375 -11.5625 -27.828125q-2.28125 -11.03125 -2.28125 -35.0l0 -137.07812l37.5 0l0 122.703125q0 29.375 2.28125 39.59375q3.546875 14.78125 15.0 23.21875q11.46875 8.4375 28.328125 8.4375q16.875 0 31.671875 -8.640625q14.796875 -8.640625 20.9375 -23.53125q6.140625 -14.90625 6.140625 -43.234375l0 -118.546875l37.5 0l0 221.25l-33.53125 0zm77.28613 -66.046875l37.078125 -5.828125q3.125 22.296875 17.390625 34.171875q14.28125 11.875 39.90625 11.875q25.828125 0 38.328125 -10.515625q12.5 -10.53125 12.5 -24.703125q0 -12.703125 -11.046875 -20.0q-7.703125 -5.0 -38.328125 -12.703125q-41.25 -10.421875 -57.1875 -18.015625q-15.9375 -7.609375 -24.171875 -21.046875q-8.21875 -13.4375 -8.21875 -29.6875q0 -14.78125 6.765625 -27.390625q6.78125 -12.609375 18.4375 -20.9375q8.75 -6.453125 23.859375 -10.9375q15.109375 -4.484375 32.390625 -4.484375q26.046875 0 45.734375 7.5q19.6875 7.5 29.0625 20.3125q9.375 12.8125 12.90625 34.28125l-36.65625 5.0q-2.5 -17.09375 -14.484375 -26.671875q-11.984375 -9.578125 -33.84375 -9.578125q-25.84375 0 -36.890625 8.546875q-11.03125 8.53125 -11.03125 19.984375q0 7.296875 4.578125 13.125q4.59375 6.046875 14.375 10.0q5.625 2.09375 33.125 9.59375q39.796875 10.625 55.515625 17.390625q15.734375 6.765625 24.6875 19.6875q8.96875 12.90625 8.96875 32.078125q0 18.75 -10.9375 35.3125q-10.9375 16.5625 -31.5625 25.625q-20.625 9.0625 -46.671875 9.0625q-43.125 0 -65.734375 -17.90625q-22.59375 -17.921875 -28.84375 -53.140625zm379.78125 -5.203125l38.75 4.796875q-9.171875 33.953125 -33.96875 52.703125q-24.78125 18.75 -63.328125 18.75q-48.53125 0 -76.96875 -29.890625q-28.4375 -29.90625 -28.4375 -83.859375q0 -55.828125 28.75 -86.65625q28.75 -30.84375 74.578125 -30.84375q44.375 0 72.5 30.21875q28.125 30.203125 28.125 85.0q0 3.328125 -0.203125 9.984375l-165.0 0q2.078125 36.46875 20.625 55.84375q18.546875 19.375 46.25 19.375q20.625 0 35.203125 -10.828125q14.578125 -10.84375 23.125 -34.59375zm-123.125 -60.625l123.546875 0q-2.5 -27.90625 -14.171875 -41.875q-17.921875 -21.65625 -46.453125 -21.65625q-25.828125 0 -43.4375 17.296875q-17.609375 17.28125 -19.484375 46.234375zm318.54346 33.75l38.125 -3.328125q2.703125 22.90625 12.59375 37.59375q9.90625 14.6875 30.734375 23.75q20.828125 9.0625 46.875 9.0625q23.125 0 40.828125 -6.875q17.703125 -6.875 26.34375 -18.84375q8.65625 -11.984375 8.65625 -26.15625q0 -14.375 -8.34375 -25.09375q-8.328125 -10.734375 -27.484375 -18.015625q-12.296875 -4.796875 -54.375 -14.890625q-42.078125 -10.109375 -58.953125 -19.078125q-21.875 -11.453125 -32.609375 -28.421875q-10.734375 -16.984375 -10.734375 -38.03125q0 -23.125 13.125 -43.21875q13.125 -20.109375 38.328125 -30.53125q25.21875 -10.421875 56.046875 -10.421875q33.953125 0 59.890625 10.9375q25.9375 10.9375 39.890625 32.1875q13.96875 21.25 15.015625 48.125l-38.75 2.921875q-3.125 -28.953125 -21.15625 -43.75q-18.015625 -14.796875 -53.21875 -14.796875q-36.671875 0 -53.4375 13.4375q-16.765625 13.4375 -16.765625 32.40625q0 16.453125 11.875 27.078125q11.65625 10.625 60.921875 21.78125q49.28125 11.140625 67.609375 19.46875q26.671875 12.296875 39.375 31.15625q12.703125 18.84375 12.703125 43.421875q0 24.375 -13.953125 45.9375q-13.953125 21.5625 -40.109375 33.546875q-26.140625 11.96875 -58.84375 11.96875q-41.46875 0 -69.484375 -12.078125q-28.015625 -12.078125 -43.953125 -36.34375q-15.9375 -24.28125 -16.765625 -54.90625zm385.60742 98.125l-118.328125 -305.40625l43.75 0l79.375 221.85938q9.578125 26.671875 16.03125 50.0q7.09375 -25.0 16.46875 -50.0l82.5 -221.85938l41.25 0l-119.59375 305.40625l-41.453125 0zm340.20142 -119.78125l0 -35.84375l129.375 -0.203125l0 113.328125q-29.796875 23.75 -61.46875 35.734375q-31.65625 11.96875 -64.984375 11.96875q-45.0 0 -81.78125 -19.265625q-36.765625 -19.265625 -55.515625 -55.71875q-18.75 -36.46875 -18.75 -81.46875q0 -44.578125 18.640625 -83.21875q18.65625 -38.65625 53.65625 -57.40625q35.0 -18.75 80.625 -18.75q33.125 0 59.890625 10.734375q26.765625 10.734375 41.96875 29.90625q15.21875 19.15625 23.140625 49.984375l-36.46875 10.0q-6.875 -23.328125 -17.078125 -36.65625q-10.203125 -13.34375 -29.171875 -21.359375q-18.953125 -8.015625 -42.078125 -8.015625q-27.703125 0 -47.921875 8.4375q-20.203125 8.4375 -32.59375 22.1875q-12.390625 13.75 -19.265625 30.203125q-11.671875 28.328125 -11.671875 61.453125q0 40.84375 14.0625 68.34375q14.0625 27.484375 40.9375 40.828125q26.875 13.328125 57.078125 13.328125q26.25 0 51.25 -10.09375q25.0 -10.109375 37.921875 -21.578125l0 -56.859375l-89.796875 0zm447.07764 92.484375q-20.84375 17.71875 -40.109375 25.015625q-19.265625 7.28125 -41.34375 7.28125q-36.46875 0 -56.046875 -17.8125q-19.578125 -17.8125 -19.578125 -45.515625q0 -16.25 7.390625 -29.6875q7.390625 -13.4375 19.375 -21.5625q11.984375 -8.125 26.984375 -12.296875q11.03125 -2.90625 33.328125 -5.625q45.40625 -5.40625 66.875 -12.90625q0.203125 -7.71875 0.203125 -9.796875q0 -22.921875 -10.625 -32.296875q-14.375 -12.703125 -42.703125 -12.703125q-26.453125 0 -39.0625 9.28125q-12.609375 9.265625 -18.640625 32.796875l-36.671875 -5.0q5.0 -23.53125 16.453125 -38.015625q11.46875 -14.484375 33.125 -22.296875q21.671875 -7.8125 50.203125 -7.8125q28.34375 0 46.046875 6.671875q17.703125 6.671875 26.03125 16.78125q8.34375 10.09375 11.671875 25.515625q1.875 9.578125 1.875 34.578125l0 50.0q0 52.28125 2.390625 66.140625q2.40625 13.859375 9.484375 26.5625l-39.15625 0q-5.84375 -11.671875 -7.5 -27.296875zm-3.125 -83.734375q-20.421875 8.328125 -61.25 14.15625q-23.125 3.328125 -32.71875 7.5q-9.578125 4.171875 -14.78125 12.1875q-5.203125 8.015625 -5.203125 17.8125q0 15.0 11.34375 25.0q11.359375 10.0 33.234375 10.0q21.65625 0 38.53125 -9.46875q16.875 -9.484375 24.796875 -25.953125q6.046875 -12.703125 6.046875 -37.5l0 -13.734375zm81.03613 44.984375l37.078125 -5.828125q3.125 22.296875 17.390625 34.171875q14.28125 11.875 39.90625 11.875q25.828125 0 38.328125 -10.515625q12.5 -10.53125 12.5 -24.703125q0 -12.703125 -11.046875 -20.0q-7.703125 -5.0 -38.328125 -12.703125q-41.25 -10.421875 -57.1875 -18.015625q-15.9375 -7.609375 -24.171875 -21.046875q-8.21875 -13.4375 -8.21875 -29.6875q0 -14.78125 6.765625 -27.390625q6.78125 -12.609375 18.4375 -20.9375q8.75 -6.453125 23.859375 -10.9375q15.109375 -4.484375 32.390625 -4.484375q26.046875 0 45.734375 7.5q19.6875 7.5 29.0625 20.3125q9.375 12.8125 12.90625 34.28125l-36.65625 5.0q-2.5 -17.09375 -14.484375 -26.671875q-11.984375 -9.578125 -33.84375 -9.578125q-25.84375 0 -36.890625 8.546875q-11.03125 8.53125 -11.03125 19.984375q0 7.296875 4.578125 13.125q4.59375 6.046875 14.375 10.0q5.625 2.09375 33.125 9.59375q39.796875 10.625 55.515625 17.390625q15.734375 6.765625 24.6875 19.6875q8.96875 12.90625 8.96875 32.078125q0 18.75 -10.9375 35.3125q-10.9375 16.5625 -31.5625 25.625q-20.625 9.0625 -46.671875 9.0625q-43.125 0 -65.734375 -17.90625q-22.59375 -17.921875 -28.84375 -53.140625zm355.8203 66.046875l0 -192.07812l-33.125 0l0 -29.171875l33.125 0l0 -23.53125q0 -22.296875 3.96875 -33.125q5.40625 -14.59375 19.046875 -23.65625q13.65625 -9.0625 38.234375 -9.0625q15.828125 0 35.0 3.75l-5.625 32.71875q-11.671875 -2.09375 -22.078125 -2.09375q-17.078125 0 -24.171875 7.296875q-7.078125 7.296875 -7.078125 27.296875l0 20.40625l43.125 0l0 29.171875l-43.125 0l0 192.07812l-37.296875 0zm95.632324 -110.625q0 -61.453125 34.15625 -91.03125q28.546875 -24.59375 69.578125 -24.59375q45.625 0 74.578125 29.90625q28.96875 29.890625 28.96875 82.59375q0 42.703125 -12.8125 67.1875q-12.8125 24.484375 -37.296875 38.03125q-24.46875 13.53125 -53.4375 13.53125q-46.453125 0 -75.09375 -29.78125q-28.640625 -29.796875 -28.640625 -85.84375zm38.53125 0q0 42.5 18.546875 63.65625q18.546875 21.140625 46.65625 21.140625q27.921875 0 46.453125 -21.25q18.546875 -21.25 18.546875 -64.796875q0 -41.03125 -18.640625 -62.171875q-18.640625 -21.15625 -46.359375 -21.15625q-28.109375 0 -46.65625 21.046875q-18.546875 21.03125 -18.546875 63.53125zm212.28564 110.625l0 -221.25l33.75 0l0 33.546875q12.921875 -23.546875 23.859375 -31.046875q10.9375 -7.5 24.0625 -7.5q18.953125 0 38.53125 12.09375l-12.90625 34.78125q-13.75 -8.125 -27.5 -8.125q-12.296875 0 -22.09375 7.40625q-9.78125 7.390625 -13.953125 20.515625q-6.25 20.0 -6.25 43.75l0 115.828125l-37.5 0zm142.50195 0l0 -221.25l33.546875 0l0 31.046875q10.40625 -16.25 27.703125 -26.140625q17.296875 -9.90625 39.375 -9.90625q24.578125 0 40.296875 10.21875q15.734375 10.203125 22.203125 28.53125q26.25 -38.75 68.328125 -38.75q32.921875 0 50.625 18.234375q17.703125 18.234375 17.703125 56.140625l0 151.875l-37.28125 0l0 -139.375q0 -22.5 -3.65625 -32.390625q-3.640625 -9.890625 -13.234375 -15.9375q-9.578125 -6.046875 -22.484375 -6.046875q-23.34375 0 -38.765625 15.53125q-15.40625 15.515625 -15.40625 49.6875l0 128.53125l-37.5 0l0 -143.75q0 -25.0 -9.171875 -37.5q-9.15625 -12.5 -30.0 -12.5q-15.828125 0 -29.265625 8.34375q-13.4375 8.328125 -19.484375 24.375q-6.03125 16.03125 -6.03125 46.25l0 114.78125l-37.5 0zm499.7832 -27.296875q-20.84375 17.71875 -40.109375 25.015625q-19.265625 7.28125 -41.34375 7.28125q-36.46875 0 -56.046875 -17.8125q-19.578125 -17.8125 -19.578125 -45.515625q0 -16.25 7.390625 -29.6875q7.390625 -13.4375 19.375 -21.5625q11.984375 -8.125 26.984375 -12.296875q11.03125 -2.90625 33.328125 -5.625q45.40625 -5.40625 66.875 -12.90625q0.203125 -7.71875 0.203125 -9.796875q0 -22.921875 -10.625 -32.296875q-14.375 -12.703125 -42.703125 -12.703125q-26.453125 0 -39.0625 9.28125q-12.609375 9.265625 -18.640625 32.796875l-36.671875 -5.0q5.0 -23.53125 16.453125 -38.015625q11.46875 -14.484375 33.125 -22.296875q21.671875 -7.8125 50.203125 -7.8125q28.34375 0 46.046875 6.671875q17.703125 6.671875 26.03125 16.78125q8.34375 10.09375 11.671875 25.515625q1.875 9.578125 1.875 34.578125l0 50.0q0 52.28125 2.390625 66.140625q2.40625 13.859375 9.484375 26.5625l-39.15625 0q-5.84375 -11.671875 -7.5 -27.296875zm-3.125 -83.734375q-20.421875 8.328125 -61.25 14.15625q-23.125 3.328125 -32.71875 7.5q-9.578125 4.171875 -14.78125 12.1875q-5.203125 8.015625 -5.203125 17.8125q0 15.0 11.34375 25.0q11.359375 10.0 33.234375 10.0q21.65625 0 38.53125 -9.46875q16.875 -9.484375 24.796875 -25.953125q6.046875 -12.703125 6.046875 -37.5l0 -13.734375zm177.91064 77.484375l5.40625 33.125q-15.828125 3.34375 -28.328125 3.34375q-20.40625 0 -31.65625 -6.453125q-11.25 -6.46875 -15.84375 -16.984375q-4.578125 -10.53125 -4.578125 -44.28125l0 -127.28125l-27.5 0l0 -29.171875l27.5 0l0 -54.78125l37.296875 -22.5l0 77.28125l37.703125 0l0 29.171875l-37.703125 0l0 129.375q0 16.03125 1.96875 20.625q1.984375 4.578125 6.453125 7.296875q4.484375 2.703125 12.828125 2.703125q6.25 0 16.453125 -1.46875zm47.288574 33.546875l0 -42.703125l42.703125 0l0 42.703125l-42.703125 0z" fill-rule="nonzero"/><path fill="#b6d7a8" d="m3968.5142 8526.256l1050.0962 -743.80176l-103.54248 682.8867l1192.0093 -111.31348l-473.41797 366.51465l1239.9712 105.41504l-984.6416 299.8291l1126.5542 361.00098l-1343.7964 -44.628906l369.0293 660.8301l-1163.7959 -466.54395l-218.08789 677.1172l-765.98926 -615.8174l-577.5249 854.73145l-217.2417 -765.9883l-833.1367 255.20117l255.32959 -471.9297l-1560.7556 83.35742l1012.0085 -360.6162l-1050.0964 -405.24316l1305.426 -127.98535l-1201.0371 -682.50244l1958.5623 516.17236l293.41772 -516.17236z" fill-rule="evenodd"/><path stroke="#38761d" stroke-width="12.0" stroke-linejoin="round" stroke-linecap="butt" d="m3968.5142 8526.256l1050.0962 -743.80176l-103.54248 682.8867l1192.0093 -111.31348l-473.41797 366.51465l1239.9712 105.41504l-984.6416 299.8291l1126.5542 361.00098l-1343.7964 -44.628906l369.0293 660.8301l-1163.7959 -466.54395l-218.08789 677.1172l-765.98926 -615.8174l-577.5249 854.73145l-217.2417 -765.9883l-833.1367 255.20117l255.32959 -471.9297l-1560.7556 83.35742l1012.0085 -360.6162l-1050.0964 -405.24316l1305.426 -127.98535l-1201.0371 -682.50244l1958.5623 516.17236l293.41772 -516.17236z" fill-rule="evenodd"/></g></svg>